<?xml version="1.0" standalone="yes"?>

<svg version="1.1" viewBox="0.0 0.0 709.2860892388452 470.3569553805774" fill="none" stroke="none" stroke-linecap="square" stroke-miterlimit="10" xmlns="http://www.w3.org/2000/svg" xmlns:xlink="http://www.w3.org/1999/xlink"><clipPath id="p.0"><path d="m0 0l709.2861 0l0 470.35696l-709.2861 0l0 -470.35696z" clip-rule="nonzero"></path></clipPath><g clip-path="url(#p.0)"><path fill="#000000" fill-opacity="0.0" d="m0 0l709.2861 0l0 470.35696l-709.2861 0z" fill-rule="nonzero"></path><path fill="#c27ba0" d="m266.62814 51.643562l0 0c0 -14.321999 11.61026 -25.932276 25.932281 -25.932276l103.72598 0l0 0c6.877655 0 13.473633 2.7321415 18.336884 7.5953884c4.8632507 4.863243 7.595398 11.459221 7.595398 18.336887l0 103.72599c0 14.322006 -11.610291 25.932281 -25.932281 25.932281l-103.72598 0c-14.3220215 0 -25.932281 -11.610275 -25.932281 -25.932281z" fill-rule="nonzero"></path><path fill="#ffffff" d="m320.93512 112.046555l0 -17.1875l5.90625 0q2.015625 0 3.0625 0.25q1.484375 0.34375 2.515625 1.234375q1.359375 1.140625 2.03125 2.9375q0.6875 1.78125 0.6875 4.078125q0 1.953125 -0.46875 3.46875q-0.453125 1.515625 -1.171875 2.515625q-0.703125 0.984375 -1.5625 1.546875q-0.84375 0.5625 -2.046875 0.859375q-1.203125 0.296875 -2.765625 0.296875l-6.1875 0zm2.265625 -2.03125l3.671875 0q1.703125 0 2.65625 -0.3125q0.96875 -0.3125 1.546875 -0.890625q0.8125 -0.8125 1.265625 -2.171875q0.453125 -1.375 0.453125 -3.3125q0 -2.703125 -0.890625 -4.140625q-0.890625 -1.453125 -2.15625 -1.9375q-0.90625 -0.359375 -2.9375 -0.359375l-3.609375 0l0 13.125zm22.910156 0.5q-1.171875 0.984375 -2.265625 1.40625q-1.078125 0.40625 -2.3125 0.40625q-2.046875 0 -3.15625 -1.0q-1.09375 -1.0 -1.09375 -2.5625q0 -0.921875 0.40625 -1.671875q0.421875 -0.75 1.09375 -1.203125q0.671875 -0.46875 1.515625 -0.703125q0.625 -0.15625 1.875 -0.3125q2.5625 -0.3125 3.765625 -0.734375q0.015625 -0.421875 0.015625 -0.546875q0 -1.28125 -0.609375 -1.8125q-0.796875 -0.71875 -2.390625 -0.71875q-1.5 0 -2.203125 0.53125q-0.703125 0.515625 -1.046875 1.84375l-2.0625 -0.28125q0.28125 -1.328125 0.921875 -2.140625q0.640625 -0.8125 1.859375 -1.25q1.21875 -0.453125 2.828125 -0.453125q1.59375 0 2.59375 0.375q1.0 0.375 1.46875 0.953125q0.46875 0.5625 0.65625 1.4375q0.09375 0.53125 0.09375 1.9375l0 2.8125q0 2.9375 0.140625 3.71875q0.140625 0.78125 0.53125 1.5l-2.203125 0q-0.328125 -0.65625 -0.421875 -1.53125zm-0.171875 -4.71875q-1.15625 0.46875 -3.453125 0.796875q-1.296875 0.1875 -1.84375 0.421875q-0.53125 0.234375 -0.828125 0.6875q-0.28125 0.453125 -0.28125 1.0q0 0.84375 0.625 1.40625q0.640625 0.5625 1.875 0.5625q1.21875 0 2.171875 -0.53125q0.953125 -0.53125 1.390625 -1.453125q0.34375 -0.71875 0.34375 -2.109375l0 -0.78125zm10.003906 4.359375l0.3125 1.859375q-0.890625 0.203125 -1.59375 0.203125q-1.15625 0 -1.796875 -0.359375q-0.625 -0.375 -0.890625 -0.96875q-0.25 -0.59375 -0.25 -2.484375l0 -7.171875l-1.546875 0l0 -1.640625l1.546875 0l0 -3.078125l2.09375 -1.265625l0 4.34375l2.125 0l0 1.640625l-2.125 0l0 7.28125q0 0.90625 0.109375 1.171875q0.125 0.25 0.375 0.40625q0.25 0.140625 0.71875 0.140625q0.34375 0 0.921875 -0.078125zm10.183594 0.359375q-1.171875 0.984375 -2.265625 1.40625q-1.078125 0.40625 -2.3125 0.40625q-2.046875 0 -3.15625 -1.0q-1.09375 -1.0 -1.09375 -2.5625q0 -0.921875 0.40625 -1.671875q0.421875 -0.75 1.09375 -1.203125q0.671875 -0.46875 1.515625 -0.703125q0.625 -0.15625 1.875 -0.3125q2.5625 -0.3125 3.765625 -0.734375q0.015625 -0.421875 0.015625 -0.546875q0 -1.28125 -0.609375 -1.8125q-0.796875 -0.71875 -2.390625 -0.71875q-1.5 0 -2.203125 0.53125q-0.703125 0.515625 -1.046875 1.84375l-2.0625 -0.28125q0.28125 -1.328125 0.921875 -2.140625q0.640625 -0.8125 1.859375 -1.25q1.21875 -0.453125 2.828125 -0.453125q1.59375 0 2.59375 0.375q1.0 0.375 1.46875 0.953125q0.46875 0.5625 0.65625 1.4375q0.09375 0.53125 0.09375 1.9375l0 2.8125q0 2.9375 0.140625 3.71875q0.140625 0.78125 0.53125 1.5l-2.203125 0q-0.328125 -0.65625 -0.421875 -1.53125zm-0.171875 -4.71875q-1.15625 0.46875 -3.453125 0.796875q-1.296875 0.1875 -1.84375 0.421875q-0.53125 0.234375 -0.828125 0.6875q-0.28125 0.453125 -0.28125 1.0q0 0.84375 0.625 1.40625q0.640625 0.5625 1.875 0.5625q1.21875 0 2.171875 -0.53125q0.953125 -0.53125 1.390625 -1.453125q0.34375 -0.71875 0.34375 -2.109375l0 -0.78125z" fill-rule="nonzero"></path><path fill="#6fa8dc" d="m266.62814 286.532l0 0c0 -14.3220215 11.61026 -25.932281 25.932281 -25.932281l103.72598 0l0 0c6.877655 0 13.473633 2.7321472 18.336884 7.595398c4.8632507 4.86322 7.595398 11.459198 7.595398 18.336884l0 103.72598c0 14.3220215 -11.610291 25.932281 -25.932281 25.932281l-103.72598 0c-14.3220215 0 -25.932281 -11.61026 -25.932281 -25.932281z" fill-rule="nonzero"></path><path fill="#ffffff" d="m315.17145 346.935l-6.65625 -17.1875l2.453125 0l4.46875 12.484375q0.546875 1.5 0.90625 2.8125q0.390625 -1.40625 0.921875 -2.8125l4.640625 -12.484375l2.328125 0l-6.734375 17.1875l-2.328125 0zm10.8359375 -14.75l0 -2.4375l2.109375 0l0 2.4375l-2.109375 0zm0 14.75l0 -12.453125l2.109375 0l0 12.453125l-2.109375 0zm13.847656 -4.015625l2.171875 0.28125q-0.515625 1.90625 -1.90625 2.96875q-1.390625 1.046875 -3.5625 1.046875q-2.734375 0 -4.34375 -1.671875q-1.59375 -1.6875 -1.59375 -4.734375q0 -3.140625 1.609375 -4.875q1.625 -1.734375 4.203125 -1.734375q2.5 0 4.078125 1.703125q1.59375 1.703125 1.59375 4.78125q0 0.1875 -0.015625 0.5625l-9.28125 0q0.109375 2.046875 1.15625 3.140625q1.046875 1.09375 2.609375 1.09375q1.15625 0 1.96875 -0.609375q0.828125 -0.609375 1.3125 -1.953125zm-6.9375 -3.40625l6.953125 0q-0.140625 -1.5625 -0.796875 -2.359375q-1.0 -1.21875 -2.609375 -1.21875q-1.453125 0 -2.453125 0.984375q-0.984375 0.96875 -1.09375 2.59375zm14.050781 7.421875l-3.796875 -12.453125l2.171875 0l1.984375 7.1875l0.734375 2.671875q0.046875 -0.203125 0.640625 -2.5625l1.984375 -7.296875l2.171875 0l1.859375 7.21875l0.625 2.390625l0.71875 -2.40625l2.125 -7.203125l2.046875 0l-3.890625 12.453125l-2.1875 0l-1.984375 -7.453125l-0.46875 -2.125l-2.53125 9.578125l-2.203125 0zm32.203125 -2.03125l0 2.03125l-11.34375 0q-0.03125 -0.765625 0.234375 -1.46875q0.4375 -1.15625 1.390625 -2.28125q0.953125 -1.125 2.765625 -2.609375q2.796875 -2.296875 3.78125 -3.625q0.984375 -1.34375 0.984375 -2.546875q0 -1.25 -0.90625 -2.109375q-0.890625 -0.859375 -2.328125 -0.859375q-1.515625 0 -2.4375 0.921875q-0.90625 0.90625 -0.921875 2.515625l-2.171875 -0.21875q0.21875 -2.421875 1.671875 -3.6875q1.453125 -1.28125 3.90625 -1.28125q2.46875 0 3.90625 1.375q1.453125 1.359375 1.453125 3.390625q0 1.03125 -0.421875 2.03125q-0.421875 1.0 -1.40625 2.109375q-0.96875 1.09375 -3.25 3.015625q-1.890625 1.59375 -2.4375 2.15625q-0.53125 0.5625 -0.890625 1.140625l8.421875 0z" fill-rule="nonzero"></path><path fill="#6fa8dc" d="m33.14173 286.532l0 0c0 -14.3220215 11.610275 -25.932281 25.932278 -25.932281l103.726 0l0 0c6.8776703 0 13.473648 2.7321472 18.336899 7.595398c4.8632355 4.86322 7.5953827 11.459198 7.5953827 18.336884l0 103.72598c0 14.3220215 -11.610275 25.932281 -25.932281 25.932281l-103.726 0c-14.322002 0 -25.932278 -11.61026 -25.932278 -25.932281z" fill-rule="nonzero"></path><path fill="#ffffff" d="m81.68505 346.935l-6.65625 -17.1875l2.453125 0l4.46875 12.484375q0.546875 1.5 0.90625 2.8125q0.390625 -1.40625 0.921875 -2.8125l4.640625 -12.484375l2.328125 0l-6.734375 17.1875l-2.328125 0zm10.8359375 -14.75l0 -2.4375l2.109375 0l0 2.4375l-2.109375 0zm0 14.75l0 -12.453125l2.109375 0l0 12.453125l-2.109375 0zm13.847656 -4.015625l2.171875 0.28125q-0.515625 1.90625 -1.90625 2.96875q-1.390625 1.046875 -3.5625 1.046875q-2.734375 0 -4.34375 -1.671875q-1.59375 -1.6875 -1.59375 -4.734375q0 -3.140625 1.609375 -4.875q1.625 -1.734375 4.203125 -1.734375q2.5 0 4.078125 1.703125q1.59375 1.703125 1.59375 4.78125q0 0.1875 -0.015625 0.5625l-9.28125 0q0.109375 2.046875 1.15625 3.140625q1.046875 1.09375 2.609375 1.09375q1.15625 0 1.96875 -0.609375q0.828125 -0.609375 1.3125 -1.953125zm-6.9375 -3.40625l6.953125 0q-0.140625 -1.5625 -0.796875 -2.359375q-1.0 -1.21875 -2.609375 -1.21875q-1.453125 0 -2.453125 0.984375q-0.984375 0.96875 -1.09375 2.59375zm14.050781 7.421875l-3.796875 -12.453125l2.171875 0l1.984375 7.1875l0.734375 2.671875q0.046875 -0.203125 0.640625 -2.5625l1.984375 -7.296875l2.171875 0l1.859375 7.21875l0.625 2.390625l0.71875 -2.40625l2.125 -7.203125l2.046875 0l-3.890625 12.453125l-2.1875 0l-1.984375 -7.453125l-0.46875 -2.125l-2.53125 9.578125l-2.203125 0zm29.062492 0l-2.109375 0l0 -13.4375q-0.75 0.71875 -2.0 1.453125q-1.234375 0.71875 -2.21875 1.078125l0 -2.03125q1.78125 -0.828125 3.09375 -2.015625q1.328125 -1.1875 1.875 -2.296875l1.359375 0l0 17.25z" fill-rule="nonzero"></path><path fill="#6fa8dc" d="m500.11453 286.532l0 0c0 -14.3220215 11.610291 -25.932281 25.932281 -25.932281l103.72601 0l0 0c6.8776245 0 13.473633 2.7321472 18.336853 7.595398c4.8632812 4.86322 7.595398 11.459198 7.595398 18.336884l0 103.72598c0 14.3220215 -11.610291 25.932281 -25.932251 25.932281l-103.72601 0c-14.321991 0 -25.932281 -11.61026 -25.932281 -25.932281z" fill-rule="nonzero"></path><path fill="#ffffff" d="m548.65784 346.935l-6.65625 -17.1875l2.453125 0l4.46875 12.484375q0.546875 1.5 0.90625 2.8125q0.390625 -1.40625 0.921875 -2.8125l4.640625 -12.484375l2.328125 0l-6.734375 17.1875l-2.328125 0zm10.8359375 -14.75l0 -2.4375l2.109375 0l0 2.4375l-2.109375 0zm0 14.75l0 -12.453125l2.109375 0l0 12.453125l-2.109375 0zm13.847656 -4.015625l2.171875 0.28125q-0.515625 1.90625 -1.90625 2.96875q-1.390625 1.046875 -3.5625 1.046875q-2.734375 0 -4.34375 -1.671875q-1.59375 -1.6875 -1.59375 -4.734375q0 -3.140625 1.609375 -4.875q1.625 -1.734375 4.203125 -1.734375q2.5 0 4.078125 1.703125q1.59375 1.703125 1.59375 4.78125q0 0.1875 -0.015625 0.5625l-9.28125 0q0.109375 2.046875 1.15625 3.140625q1.046875 1.09375 2.609375 1.09375q1.15625 0 1.96875 -0.609375q0.828125 -0.609375 1.3125 -1.953125zm-6.9375 -3.40625l6.953125 0q-0.140625 -1.5625 -0.796875 -2.359375q-1.0 -1.21875 -2.609375 -1.21875q-1.453125 0 -2.453125 0.984375q-0.984375 0.96875 -1.09375 2.59375zm14.050781 7.421875l-3.796875 -12.453125l2.171875 0l1.984375 7.1875l0.734375 2.671875q0.046875 -0.203125 0.640625 -2.5625l1.984375 -7.296875l2.171875 0l1.859375 7.21875l0.625 2.390625l0.71875 -2.40625l2.125 -7.203125l2.046875 0l-3.890625 12.453125l-2.1875 0l-1.984375 -7.453125l-0.46875 -2.125l-2.53125 9.578125l-2.203125 0zm21.140625 -4.53125l2.109375 -0.28125q0.359375 1.78125 1.234375 2.578125q0.875 0.796875 2.125 0.796875q1.484375 0 2.5 -1.03125q1.03125 -1.03125 1.03125 -2.5625q0 -1.453125 -0.953125 -2.390625q-0.9375 -0.953125 -2.40625 -0.953125q-0.59375 0 -1.484375 0.234375l0.234375 -1.84375q0.203125 0.015625 0.34375 0.015625q1.34375 0 2.421875 -0.703125q1.078125 -0.703125 1.078125 -2.15625q0 -1.171875 -0.796875 -1.921875q-0.78125 -0.765625 -2.015625 -0.765625q-1.234375 0 -2.0625 0.78125q-0.8125 0.765625 -1.046875 2.3125l-2.109375 -0.375q0.390625 -2.125 1.75 -3.28125q1.375 -1.171875 3.421875 -1.171875q1.40625 0 2.578125 0.609375q1.1875 0.59375 1.8125 1.640625q0.640625 1.046875 0.640625 2.21875q0 1.109375 -0.609375 2.03125q-0.59375 0.90625 -1.765625 1.4375q1.53125 0.359375 2.375 1.46875q0.84375 1.109375 0.84375 2.765625q0 2.25 -1.640625 3.828125q-1.640625 1.5625 -4.15625 1.5625q-2.265625 0 -3.765625 -1.34375q-1.484375 -1.359375 -1.6875 -3.5z" fill-rule="nonzero"></path><path fill="#c27ba0" d="m33.14257 51.643562l0 0c0 -14.321999 11.610275 -25.932276 25.932278 -25.932276l103.726 0l0 0c6.8776703 0 13.473648 2.7321415 18.336899 7.5953884c4.8632355 4.863243 7.5953827 11.459221 7.5953827 18.336887l0 103.72599c0 14.322006 -11.610275 25.932281 -25.932281 25.932281l-103.726 0c-14.322002 0 -25.932278 -11.610275 -25.932278 -25.932281z" fill-rule="nonzero"></path><path fill="#ffffff" d="m87.44956 112.046555l0 -17.1875l5.90625 0q2.015625 0 3.0625 0.25q1.484375 0.34375 2.515625 1.234375q1.359375 1.140625 2.03125 2.9375q0.6875 1.78125 0.6875 4.078125q0 1.953125 -0.46875 3.46875q-0.453125 1.515625 -1.171875 2.515625q-0.703125 0.984375 -1.5625 1.546875q-0.84375 0.5625 -2.046875 0.859375q-1.203125 0.296875 -2.765625 0.296875l-6.1875 0zm2.265625 -2.03125l3.671875 0q1.703125 0 2.65625 -0.3125q0.96875 -0.3125 1.546875 -0.890625q0.8125 -0.8125 1.265625 -2.171875q0.453125 -1.375 0.453125 -3.3125q0 -2.703125 -0.890625 -4.140625q-0.890625 -1.453125 -2.15625 -1.9375q-0.90625 -0.359375 -2.9375 -0.359375l-3.609375 0l0 13.125zm22.910156 0.5q-1.171875 0.984375 -2.265625 1.40625q-1.078125 0.40625 -2.3125 0.40625q-2.046875 0 -3.15625 -1.0q-1.09375 -1.0 -1.09375 -2.5625q0 -0.921875 0.40625 -1.671875q0.421875 -0.75 1.09375 -1.203125q0.671875 -0.46875 1.515625 -0.703125q0.625 -0.15625 1.875 -0.3125q2.5625 -0.3125 3.765625 -0.734375q0.015625 -0.421875 0.015625 -0.546875q0 -1.28125 -0.609375 -1.8125q-0.796875 -0.71875 -2.390625 -0.71875q-1.5 0 -2.203125 0.53125q-0.703125 0.515625 -1.046875 1.84375l-2.0625 -0.28125q0.28125 -1.328125 0.921875 -2.140625q0.640625 -0.8125 1.859375 -1.25q1.21875 -0.453125 2.828125 -0.453125q1.59375 0 2.59375 0.375q1.0 0.375 1.46875 0.953125q0.46875 0.5625 0.65625 1.4375q0.09375 0.53125 0.09375 1.9375l0 2.8125q0 2.9375 0.140625 3.71875q0.140625 0.78125 0.53125 1.5l-2.203125 0q-0.328125 -0.65625 -0.421875 -1.53125zm-0.171875 -4.71875q-1.15625 0.46875 -3.453125 0.796875q-1.296875 0.1875 -1.84375 0.421875q-0.53125 0.234375 -0.828125 0.6875q-0.28125 0.453125 -0.28125 1.0q0 0.84375 0.625 1.40625q0.640625 0.5625 1.875 0.5625q1.21875 0 2.171875 -0.53125q0.953125 -0.53125 1.390625 -1.453125q0.34375 -0.71875 0.34375 -2.109375l0 -0.78125zm10.003906 4.359375l0.3125 1.859375q-0.890625 0.203125 -1.59375 0.203125q-1.15625 0 -1.796875 -0.359375q-0.625 -0.375 -0.890625 -0.96875q-0.25 -0.59375 -0.25 -2.484375l0 -7.171875l-1.546875 0l0 -1.640625l1.546875 0l0 -3.078125l2.09375 -1.265625l0 4.34375l2.125 0l0 1.640625l-2.125 0l0 7.28125q0 0.90625 0.109375 1.171875q0.125 0.25 0.375 0.40625q0.25 0.140625 0.71875 0.140625q0.34375 0 0.921875 -0.078125zm10.183586 0.359375q-1.171875 0.984375 -2.265625 1.40625q-1.078125 0.40625 -2.3125 0.40625q-2.0468674 0 -3.1562424 -1.0q-1.09375 -1.0 -1.09375 -2.5625q0 -0.921875 0.40625 -1.671875q0.421875 -0.75 1.09375 -1.203125q0.671875 -0.46875 1.515625 -0.703125q0.625 -0.15625 1.8749924 -0.3125q2.5625 -0.3125 3.765625 -0.734375q0.015625 -0.421875 0.015625 -0.546875q0 -1.28125 -0.609375 -1.8125q-0.796875 -0.71875 -2.390625 -0.71875q-1.4999924 0 -2.2031174 0.53125q-0.703125 0.515625 -1.046875 1.84375l-2.0625 -0.28125q0.28125 -1.328125 0.921875 -2.140625q0.640625 -0.8125 1.859375 -1.25q1.2187424 -0.453125 2.8281174 -0.453125q1.59375 0 2.59375 0.375q1.0 0.375 1.46875 0.953125q0.46875 0.5625 0.65625 1.4375q0.09375 0.53125 0.09375 1.9375l0 2.8125q0 2.9375 0.140625 3.71875q0.140625 0.78125 0.53125 1.5l-2.203125 0q-0.328125 -0.65625 -0.421875 -1.53125zm-0.171875 -4.71875q-1.15625 0.46875 -3.453125 0.796875q-1.2968674 0.1875 -1.8437424 0.421875q-0.53125 0.234375 -0.828125 0.6875q-0.28125 0.453125 -0.28125 1.0q0 0.84375 0.625 1.40625q0.640625 0.5625 1.8749924 0.5625q1.21875 0 2.171875 -0.53125q0.953125 -0.53125 1.390625 -1.453125q0.34375 -0.71875 0.34375 -2.109375l0 -0.78125z" fill-rule="nonzero"></path><path fill="#c27ba0" d="m500.1137 51.643562l0 0c0 -14.321999 11.61026 -25.932276 25.932251 -25.932276l103.72601 0l0 0c6.8776855 0 13.473633 2.7321415 18.336914 7.5953884c4.86322 4.863243 7.595337 11.459221 7.595337 18.336887l0 103.72599c0 14.322006 -11.6102295 25.932281 -25.932251 25.932281l-103.72601 0c-14.321991 0 -25.932251 -11.610275 -25.932251 -25.932281z" fill-rule="nonzero"></path><path fill="#ffffff" d="m554.4207 112.046555l0 -17.1875l5.90625 0q2.015625 0 3.0625 0.25q1.484375 0.34375 2.515625 1.234375q1.359375 1.140625 2.03125 2.9375q0.6875 1.78125 0.6875 4.078125q0 1.953125 -0.46875 3.46875q-0.453125 1.515625 -1.171875 2.515625q-0.703125 0.984375 -1.5625 1.546875q-0.84375 0.5625 -2.046875 0.859375q-1.203125 0.296875 -2.765625 0.296875l-6.1875 0zm2.265625 -2.03125l3.671875 0q1.703125 0 2.65625 -0.3125q0.96875 -0.3125 1.546875 -0.890625q0.8125 -0.8125 1.265625 -2.171875q0.453125 -1.375 0.453125 -3.3125q0 -2.703125 -0.890625 -4.140625q-0.890625 -1.453125 -2.15625 -1.9375q-0.90625 -0.359375 -2.9375 -0.359375l-3.609375 0l0 13.125zm22.910156 0.5q-1.171875 0.984375 -2.265625 1.40625q-1.078125 0.40625 -2.3125 0.40625q-2.046875 0 -3.15625 -1.0q-1.09375 -1.0 -1.09375 -2.5625q0 -0.921875 0.40625 -1.671875q0.421875 -0.75 1.09375 -1.203125q0.671875 -0.46875 1.515625 -0.703125q0.625 -0.15625 1.875 -0.3125q2.5625 -0.3125 3.765625 -0.734375q0.015625 -0.421875 0.015625 -0.546875q0 -1.28125 -0.609375 -1.8125q-0.796875 -0.71875 -2.390625 -0.71875q-1.5 0 -2.203125 0.53125q-0.703125 0.515625 -1.046875 1.84375l-2.0625 -0.28125q0.28125 -1.328125 0.921875 -2.140625q0.640625 -0.8125 1.859375 -1.25q1.21875 -0.453125 2.828125 -0.453125q1.59375 0 2.59375 0.375q1.0 0.375 1.46875 0.953125q0.46875 0.5625 0.65625 1.4375q0.09375 0.53125 0.09375 1.9375l0 2.8125q0 2.9375 0.140625 3.71875q0.140625 0.78125 0.53125 1.5l-2.203125 0q-0.328125 -0.65625 -0.421875 -1.53125zm-0.171875 -4.71875q-1.15625 0.46875 -3.453125 0.796875q-1.296875 0.1875 -1.84375 0.421875q-0.53125 0.234375 -0.828125 0.6875q-0.28125 0.453125 -0.28125 1.0q0 0.84375 0.625 1.40625q0.640625 0.5625 1.875 0.5625q1.21875 0 2.171875 -0.53125q0.953125 -0.53125 1.390625 -1.453125q0.34375 -0.71875 0.34375 -2.109375l0 -0.78125zm10.003906 4.359375l0.3125 1.859375q-0.890625 0.203125 -1.59375 0.203125q-1.15625 0 -1.796875 -0.359375q-0.625 -0.375 -0.890625 -0.96875q-0.25 -0.59375 -0.25 -2.484375l0 -7.171875l-1.546875 0l0 -1.640625l1.546875 0l0 -3.078125l2.09375 -1.265625l0 4.34375l2.125 0l0 1.640625l-2.125 0l0 7.28125q0 0.90625 0.109375 1.171875q0.125 0.25 0.375 0.40625q0.25 0.140625 0.71875 0.140625q0.34375 0 0.921875 -0.078125zm10.183594 0.359375q-1.171875 0.984375 -2.265625 1.40625q-1.078125 0.40625 -2.3125 0.40625q-2.046875 0 -3.15625 -1.0q-1.09375 -1.0 -1.09375 -2.5625q0 -0.921875 0.40625 -1.671875q0.421875 -0.75 1.09375 -1.203125q0.671875 -0.46875 1.515625 -0.703125q0.625 -0.15625 1.875 -0.3125q2.5625 -0.3125 3.765625 -0.734375q0.015625 -0.421875 0.015625 -0.546875q0 -1.28125 -0.609375 -1.8125q-0.796875 -0.71875 -2.390625 -0.71875q-1.5 0 -2.203125 0.53125q-0.703125 0.515625 -1.046875 1.84375l-2.0625 -0.28125q0.28125 -1.328125 0.921875 -2.140625q0.640625 -0.8125 1.859375 -1.25q1.21875 -0.453125 2.828125 -0.453125q1.59375 0 2.59375 0.375q1.0 0.375 1.46875 0.953125q0.46875 0.5625 0.65625 1.4375q0.09375 0.53125 0.09375 1.9375l0 2.8125q0 2.9375 0.140625 3.71875q0.140625 0.78125 0.53125 1.5l-2.203125 0q-0.328125 -0.65625 -0.421875 -1.53125zm-0.171875 -4.71875q-1.15625 0.46875 -3.453125 0.796875q-1.296875 0.1875 -1.84375 0.421875q-0.53125 0.234375 -0.828125 0.6875q-0.28125 0.453125 -0.28125 1.0q0 0.84375 0.625 1.40625q0.640625 0.5625 1.875 0.5625q1.21875 0 2.171875 -0.53125q0.953125 -0.53125 1.390625 -1.453125q0.34375 -0.71875 0.34375 -2.109375l0 -0.78125z" fill-rule="nonzero"></path></g></svg>

