<?xml version="1.0" standalone="yes"?>

<svg version="1.1" viewBox="0.0 0.0 960.0 720.0" fill="none" stroke="none" stroke-linecap="square" stroke-miterlimit="10" xmlns="http://www.w3.org/2000/svg" xmlns:xlink="http://www.w3.org/1999/xlink"><clipPath id="p.0"><path d="m0 0l960.0 0l0 720.0l-960.0 0l0 -720.0z" clip-rule="nonzero"></path></clipPath><g clip-path="url(#p.0)"><path fill="#000000" fill-opacity="0.0" d="m0 0l960.0 0l0 720.0l-960.0 0z" fill-rule="evenodd"></path><path fill="#cfe2f3" d="m558.95013 95.55249l0 0c0 7.3688736 62.56732 13.342522 139.74805 13.342522c77.180664 0 139.74799 -5.973648 139.74799 -13.342522l0 80.055115c0 7.368881 -62.56732 13.342529 -139.74799 13.342529c-77.180725 0 -139.74805 -5.973648 -139.74805 -13.342529z" fill-rule="evenodd"></path><path fill="#e2edf7" d="m558.95013 95.55249l0 0c0 -7.368866 62.56732 -13.342514 139.74805 -13.342514c77.180664 0 139.74799 5.973648 139.74799 13.342514l0 0c0 7.3688736 -62.56732 13.342522 -139.74799 13.342522c-77.180725 0 -139.74805 -5.973648 -139.74805 -13.342522z" fill-rule="evenodd"></path><path fill="#000000" fill-opacity="0.0" d="m838.44617 95.55249l0 0c0 7.3688736 -62.56732 13.342522 -139.74799 13.342522c-77.180725 0 -139.74805 -5.973648 -139.74805 -13.342522l0 0c0 -7.368866 62.56732 -13.342514 139.74805 -13.342514c77.180664 0 139.74799 5.973648 139.74799 13.342514l0 80.055115c0 7.368881 -62.56732 13.342529 -139.74799 13.342529c-77.180725 0 -139.74805 -5.973648 -139.74805 -13.342529l0 -80.055115" fill-rule="evenodd"></path><path stroke="#000000" stroke-width="1.0" stroke-linejoin="round" stroke-linecap="butt" d="m838.44617 95.55249l0 0c0 7.3688736 -62.56732 13.342522 -139.74799 13.342522c-77.180725 0 -139.74805 -5.973648 -139.74805 -13.342522l0 0c0 -7.368866 62.56732 -13.342514 139.74805 -13.342514c77.180664 0 139.74799 5.973648 139.74799 13.342514l0 80.055115c0 7.368881 -62.56732 13.342529 -139.74799 13.342529c-77.180725 0 -139.74805 -5.973648 -139.74805 -13.342529l0 -80.055115" fill-rule="evenodd"></path><path fill="#000000" d="m640.1591 145.94006l3.03125 0.765625q-0.953125 3.734375 -3.4375 5.703125q-2.46875 1.953125 -6.046875 1.953125q-3.703125 0 -6.03125 -1.5q-2.3125 -1.515625 -3.53125 -4.375q-1.203125 -2.859375 -1.203125 -6.140625q0 -3.578125 1.359375 -6.234375q1.375 -2.671875 3.890625 -4.046875q2.53125 -1.390625 5.5625 -1.390625q3.4375 0 5.78125 1.75q2.34375 1.75 3.265625 4.921875l-2.984375 0.703125q-0.796875 -2.5 -2.3125 -3.640625q-1.515625 -1.140625 -3.8125 -1.140625q-2.640625 0 -4.421875 1.265625q-1.765625 1.265625 -2.484375 3.40625q-0.71875 2.125 -0.71875 4.390625q0 2.921875 0.84375 5.109375q0.859375 2.171875 2.65625 3.25q1.796875 1.078125 3.890625 1.078125q2.546875 0 4.3125 -1.46875q1.765625 -1.46875 2.390625 -4.359375zm17.28125 8.03125l0 -2.4375q-1.9375 2.8125 -5.265625 2.8125q-1.46875 0 -2.75 -0.5625q-1.265625 -0.5625 -1.890625 -1.40625q-0.609375 -0.859375 -0.859375 -2.09375q-0.171875 -0.828125 -0.171875 -2.625l0 -10.28125l2.8125 0l0 9.203125q0 2.203125 0.171875 2.96875q0.265625 1.109375 1.125 1.75q0.859375 0.625 2.125 0.625q1.265625 0 2.375 -0.640625q1.109375 -0.65625 1.5625 -1.765625q0.46875 -1.125 0.46875 -3.25l0 -8.890625l2.8125 0l0 16.59375l-2.515625 0zm5.796875 -4.953125l2.78125 -0.4375q0.234375 1.671875 1.296875 2.5625q1.078125 0.890625 3.0 0.890625q1.9375 0 2.875 -0.78125q0.9375 -0.796875 0.9375 -1.859375q0 -0.953125 -0.828125 -1.5q-0.578125 -0.375 -2.875 -0.953125q-3.09375 -0.78125 -4.296875 -1.34375q-1.1875 -0.578125 -1.8125 -1.578125q-0.609375 -1.015625 -0.609375 -2.234375q0 -1.109375 0.5 -2.046875q0.515625 -0.953125 1.390625 -1.578125q0.65625 -0.484375 1.78125 -0.8125q1.140625 -0.34375 2.4375 -0.34375q1.953125 0 3.421875 0.5625q1.484375 0.5625 2.1875 1.53125q0.703125 0.953125 0.96875 2.5625l-2.75 0.375q-0.1875 -1.28125 -1.09375 -2.0q-0.890625 -0.71875 -2.53125 -0.71875q-1.9375 0 -2.765625 0.640625q-0.828125 0.640625 -0.828125 1.5q0 0.546875 0.34375 0.984375q0.34375 0.453125 1.078125 0.75q0.421875 0.15625 2.484375 0.71875q2.984375 0.796875 4.15625 1.3125q1.1875 0.5 1.859375 1.46875q0.671875 0.96875 0.671875 2.40625q0 1.40625 -0.828125 2.65625q-0.8125 1.234375 -2.359375 1.921875q-1.546875 0.671875 -3.5 0.671875q-3.234375 0 -4.9375 -1.34375q-1.6875 -1.34375 -2.15625 -3.984375zm23.265625 2.4375l0.40625 2.484375q-1.1875 0.25 -2.125 0.25q-1.53125 0 -2.375 -0.484375q-0.84375 -0.484375 -1.1875 -1.265625q-0.34375 -0.796875 -0.34375 -3.328125l0 -9.546875l-2.0625 0l0 -2.1875l2.0625 0l0 -4.109375l2.796875 -1.6875l0 5.796875l2.828125 0l0 2.1875l-2.828125 0l0 9.703125q0 1.203125 0.140625 1.546875q0.15625 0.34375 0.484375 0.546875q0.34375 0.203125 0.96875 0.203125q0.46875 0 1.234375 -0.109375zm1.703125 -5.78125q0 -4.609375 2.5625 -6.828125q2.140625 -1.84375 5.21875 -1.84375q3.421875 0 5.59375 2.25q2.171875 2.234375 2.171875 6.1875q0 3.203125 -0.96875 5.046875q-0.953125 1.828125 -2.796875 2.84375q-1.828125 1.015625 -4.0 1.015625q-3.484375 0 -5.640625 -2.234375q-2.140625 -2.234375 -2.140625 -6.4375zm2.890625 0q0 3.1875 1.390625 4.78125q1.390625 1.578125 3.5 1.578125q2.09375 0 3.484375 -1.59375q1.390625 -1.59375 1.390625 -4.859375q0 -3.078125 -1.40625 -4.65625q-1.390625 -1.59375 -3.46875 -1.59375q-2.109375 0 -3.5 1.578125q-1.390625 1.578125 -1.390625 4.765625zm15.953125 8.296875l0 -16.59375l2.515625 0l0 2.328125q0.78125 -1.21875 2.078125 -1.953125q1.296875 -0.75 2.953125 -0.75q1.84375 0 3.015625 0.765625q1.1875 0.765625 1.671875 2.140625q1.96875 -2.90625 5.125 -2.90625q2.46875 0 3.796875 1.375q1.328125 1.359375 1.328125 4.203125l0 11.390625l-2.796875 0l0 -10.453125q0 -1.6875 -0.28125 -2.421875q-0.265625 -0.75 -0.984375 -1.203125q-0.71875 -0.453125 -1.6875 -0.453125q-1.75 0 -2.90625 1.171875q-1.15625 1.15625 -1.15625 3.71875l0 9.640625l-2.8125 0l0 -10.78125q0 -1.875 -0.6875 -2.8125q-0.6875 -0.9375 -2.25 -0.9375q-1.1875 0 -2.203125 0.625q-1.0 0.625 -1.453125 1.828125q-0.453125 1.203125 -0.453125 3.46875l0 8.609375l-2.8125 0zm38.015625 -5.34375l2.90625 0.359375q-0.6875 2.546875 -2.546875 3.953125q-1.859375 1.40625 -4.75 1.40625q-3.640625 0 -5.78125 -2.234375q-2.125 -2.25 -2.125 -6.296875q0 -4.1875 2.15625 -6.5q2.15625 -2.3125 5.59375 -2.3125q3.328125 0 5.4375 2.265625q2.109375 2.265625 2.109375 6.375q0 0.25 -0.015625 0.75l-12.375 0q0.15625 2.734375 1.546875 4.1875q1.390625 1.453125 3.46875 1.453125q1.546875 0 2.640625 -0.8125q1.09375 -0.8125 1.734375 -2.59375zm-9.234375 -4.546875l9.265625 0q-0.1875 -2.09375 -1.0625 -3.140625q-1.34375 -1.625 -3.484375 -1.625q-1.9375 0 -3.265625 1.296875q-1.3125 1.296875 -1.453125 3.46875zm15.640625 9.890625l0 -16.59375l2.53125 0l0 2.515625q0.96875 -1.765625 1.78125 -2.328125q0.828125 -0.5625 1.8125 -0.5625q1.421875 0 2.890625 0.90625l-0.96875 2.609375q-1.03125 -0.609375 -2.0625 -0.609375q-0.921875 0 -1.65625 0.5625q-0.734375 0.546875 -1.046875 1.53125q-0.46875 1.5 -0.46875 3.28125l0 8.6875l-2.8125 0zm9.5625 -4.953125l2.78125 -0.4375q0.234375 1.671875 1.296875 2.5625q1.078125 0.890625 3.0 0.890625q1.9375 0 2.875 -0.78125q0.9375 -0.796875 0.9375 -1.859375q0 -0.953125 -0.828125 -1.5q-0.578125 -0.375 -2.875 -0.953125q-3.09375 -0.78125 -4.296875 -1.34375q-1.1875 -0.578125 -1.8125 -1.578125q-0.609375 -1.015625 -0.609375 -2.234375q0 -1.109375 0.5 -2.046875q0.515625 -0.953125 1.390625 -1.578125q0.65625 -0.484375 1.78125 -0.8125q1.140625 -0.34375 2.4375 -0.34375q1.953125 0 3.421875 0.5625q1.484375 0.5625 2.1875 1.53125q0.703125 0.953125 0.96875 2.5625l-2.75 0.375q-0.1875 -1.28125 -1.09375 -2.0q-0.890625 -0.71875 -2.53125 -0.71875q-1.9375 0 -2.765625 0.640625q-0.828125 0.640625 -0.828125 1.5q0 0.546875 0.34375 0.984375q0.34375 0.453125 1.078125 0.75q0.421875 0.15625 2.484375 0.71875q2.984375 0.796875 4.15625 1.3125q1.1875 0.5 1.859375 1.46875q0.671875 0.96875 0.671875 2.40625q0 1.40625 -0.828125 2.65625q-0.8125 1.234375 -2.359375 1.921875q-1.546875 0.671875 -3.5 0.671875q-3.234375 0 -4.9375 -1.34375q-1.6875 -1.34375 -2.15625 -3.984375z" fill-rule="nonzero"></path><path fill="#cfe2f3" d="m122.20998 512.55774l0 0c0 7.3688965 61.009125 13.342529 136.26772 13.342529c75.258575 0 136.2677 -5.973633 136.2677 -13.342529l0 80.055115c0 7.3688965 -61.009125 13.342529 -136.2677 13.342529c-75.25859 0 -136.26772 -5.973633 -136.26772 -13.342529z" fill-rule="evenodd"></path><path fill="#e2edf7" d="m122.20998 512.55774l0 0c0 -7.368866 61.009125 -13.342529 136.26772 -13.342529c75.258575 0 136.2677 5.9736633 136.2677 13.342529l0 0c0 7.3688965 -61.009125 13.342529 -136.2677 13.342529c-75.25859 0 -136.26772 -5.973633 -136.26772 -13.342529z" fill-rule="evenodd"></path><path fill="#000000" fill-opacity="0.0" d="m394.7454 512.55774l0 0c0 7.3688965 -61.009125 13.342529 -136.2677 13.342529c-75.25859 0 -136.26772 -5.973633 -136.26772 -13.342529l0 0c0 -7.368866 61.009125 -13.342529 136.26772 -13.342529c75.258575 0 136.2677 5.9736633 136.2677 13.342529l0 80.055115c0 7.3688965 -61.009125 13.342529 -136.2677 13.342529c-75.25859 0 -136.26772 -5.973633 -136.26772 -13.342529l0 -80.055115" fill-rule="evenodd"></path><path stroke="#000000" stroke-width="1.0" stroke-linejoin="round" stroke-linecap="butt" d="m394.7454 512.55774l0 0c0 7.3688965 -61.009125 13.342529 -136.2677 13.342529c-75.25859 0 -136.26772 -5.973633 -136.26772 -13.342529l0 0c0 -7.368866 61.009125 -13.342529 136.26772 -13.342529c75.258575 0 136.2677 5.9736633 136.2677 13.342529l0 80.055115c0 7.3688965 -61.009125 13.342529 -136.2677 13.342529c-75.25859 0 -136.26772 -5.973633 -136.26772 -13.342529l0 -80.055115" fill-rule="evenodd"></path><path fill="#000000" d="m197.80582 570.97656l0 -22.90625l8.640625 0q2.28125 0 3.484375 0.21875q1.6875 0.28125 2.828125 1.078125q1.140625 0.78125 1.828125 2.203125q0.703125 1.421875 0.703125 3.125q0 2.921875 -1.859375 4.953125q-1.859375 2.015625 -6.71875 2.015625l-5.875 0l0 9.3125l-3.03125 0zm3.03125 -12.015625l5.921875 0q2.9375 0 4.171875 -1.09375q1.234375 -1.09375 1.234375 -3.078125q0 -1.4375 -0.734375 -2.453125q-0.71875 -1.03125 -1.90625 -1.359375q-0.765625 -0.203125 -2.828125 -0.203125l-5.859375 0l0 8.1875zm17.921875 12.015625l0 -16.59375l2.53125 0l0 2.515625q0.96875 -1.765625 1.78125 -2.328125q0.828125 -0.5625 1.8125 -0.5625q1.421875 0 2.890625 0.90625l-0.96875 2.609375q-1.03125 -0.609375 -2.0625 -0.609375q-0.921875 0 -1.65625 0.5625q-0.734375 0.546875 -1.046875 1.53125q-0.46875 1.5 -0.46875 3.28125l0 8.6875l-2.8125 0zm9.640625 -8.296875q0 -4.609375 2.5625 -6.828125q2.140625 -1.84375 5.21875 -1.84375q3.421875 0 5.59375 2.25q2.171875 2.234375 2.171875 6.1875q0 3.203125 -0.96875 5.046875q-0.953125 1.828125 -2.796875 2.84375q-1.828125 1.015625 -4.0 1.015625q-3.484375 0 -5.640625 -2.234375q-2.140625 -2.234375 -2.140625 -6.4375zm2.890625 0q0 3.1875 1.390625 4.78125q1.390625 1.578125 3.5 1.578125q2.09375 0 3.484375 -1.59375q1.390625 -1.59375 1.390625 -4.859375q0 -3.078125 -1.40625 -4.65625q-1.390625 -1.59375 -3.46875 -1.59375q-2.109375 0 -3.5 1.578125q-1.390625 1.578125 -1.390625 4.765625zm26.71875 8.296875l0 -2.09375q-1.578125 2.46875 -4.640625 2.46875q-1.984375 0 -3.65625 -1.09375q-1.65625 -1.09375 -2.578125 -3.046875q-0.90625 -1.96875 -0.90625 -4.515625q0 -2.484375 0.828125 -4.5q0.828125 -2.03125 2.484375 -3.109375q1.65625 -1.078125 3.703125 -1.078125q1.5 0 2.671875 0.640625q1.171875 0.625 1.90625 1.640625l0 -8.21875l2.796875 0l0 22.90625l-2.609375 0zm-8.890625 -8.28125q0 3.1875 1.34375 4.765625q1.34375 1.578125 3.171875 1.578125q1.84375 0 3.125 -1.5q1.296875 -1.515625 1.296875 -4.609375q0 -3.40625 -1.3125 -5.0q-1.3125 -1.59375 -3.234375 -1.59375q-1.875 0 -3.140625 1.53125q-1.25 1.53125 -1.25 4.828125zm26.796875 8.28125l0 -2.4375q-1.9375 2.8125 -5.265625 2.8125q-1.46875 0 -2.75 -0.5625q-1.265625 -0.5625 -1.890625 -1.40625q-0.609375 -0.859375 -0.859375 -2.09375q-0.171875 -0.828125 -0.171875 -2.625l0 -10.28125l2.8125 0l0 9.203125q0 2.203125 0.171875 2.96875q0.265625 1.109375 1.125 1.75q0.859375 0.625 2.125 0.625q1.265625 0 2.375 -0.640625q1.109375 -0.65625 1.5625 -1.765625q0.46875 -1.125 0.46875 -3.25l0 -8.890625l2.8125 0l0 16.59375l-2.515625 0zm17.75 -6.078125l2.765625 0.359375q-0.453125 2.859375 -2.328125 4.484375q-1.859375 1.609375 -4.578125 1.609375q-3.40625 0 -5.484375 -2.21875q-2.0625 -2.234375 -2.0625 -6.390625q0 -2.6875 0.890625 -4.703125q0.890625 -2.015625 2.703125 -3.015625q1.828125 -1.015625 3.96875 -1.015625q2.703125 0 4.421875 1.375q1.71875 1.359375 2.203125 3.875l-2.734375 0.421875q-0.390625 -1.671875 -1.390625 -2.515625q-0.984375 -0.84375 -2.390625 -0.84375q-2.125 0 -3.453125 1.53125q-1.328125 1.515625 -1.328125 4.8125q0 3.34375 1.28125 4.859375q1.28125 1.515625 3.34375 1.515625q1.65625 0 2.765625 -1.015625q1.109375 -1.015625 1.40625 -3.125zm11.3125 3.5625l0.40625 2.484375q-1.1875 0.25 -2.125 0.25q-1.53125 0 -2.375 -0.484375q-0.84375 -0.484375 -1.1875 -1.265625q-0.34375 -0.796875 -0.34375 -3.328125l0 -9.546875l-2.0625 0l0 -2.1875l2.0625 0l0 -4.109375l2.796875 -1.6875l0 5.796875l2.828125 0l0 2.1875l-2.828125 0l0 9.703125q0 1.203125 0.140625 1.546875q0.15625 0.34375 0.484375 0.546875q0.34375 0.203125 0.96875 0.203125q0.46875 0 1.234375 -0.109375zm1.625 -2.4375l2.78125 -0.4375q0.234375 1.671875 1.296875 2.5625q1.078125 0.890625 3.0 0.890625q1.9375 0 2.875 -0.78125q0.9375 -0.796875 0.9375 -1.859375q0 -0.953125 -0.828125 -1.5q-0.578125 -0.375 -2.875 -0.953125q-3.09375 -0.78125 -4.296875 -1.34375q-1.1875 -0.578125 -1.8125 -1.578125q-0.609375 -1.015625 -0.609375 -2.234375q0 -1.109375 0.5 -2.046875q0.515625 -0.953125 1.390625 -1.578125q0.65625 -0.484375 1.78125 -0.8125q1.140625 -0.34375 2.4375 -0.34375q1.953125 0 3.421875 0.5625q1.484375 0.5625 2.1875 1.53125q0.703125 0.953125 0.96875 2.5625l-2.75 0.375q-0.1875 -1.28125 -1.09375 -2.0q-0.890625 -0.71875 -2.53125 -0.71875q-1.9375 0 -2.765625 0.640625q-0.828125 0.640625 -0.828125 1.5q0 0.546875 0.34375 0.984375q0.34375 0.453125 1.078125 0.75q0.421875 0.15625 2.484375 0.71875q2.984375 0.796875 4.15625 1.3125q1.1875 0.5 1.859375 1.46875q0.671875 0.96875 0.671875 2.40625q0 1.40625 -0.828125 2.65625q-0.8125 1.234375 -2.359375 1.921875q-1.546875 0.671875 -3.5 0.671875q-3.234375 0 -4.9375 -1.34375q-1.6875 -1.34375 -2.15625 -3.984375z" fill-rule="nonzero"></path><path fill="#cfe2f3" d="m129.21785 302.93307l0 0c0 7.368866 57.871597 13.342529 129.25984 13.342529c71.388245 0 129.25983 -5.9736633 129.25983 -13.342529l0 80.055115c0 7.368866 -57.871582 13.342529 -129.25983 13.342529c-71.388245 0 -129.25984 -5.9736633 -129.25984 -13.342529z" fill-rule="evenodd"></path><path fill="#e2edf7" d="m129.21785 302.93307l0 0c0 -7.368866 57.871597 -13.342529 129.25984 -13.342529c71.388245 0 129.25983 5.9736633 129.25983 13.342529l0 0c0 7.368866 -57.871582 13.342529 -129.25983 13.342529c-71.388245 0 -129.25984 -5.9736633 -129.25984 -13.342529z" fill-rule="evenodd"></path><path fill="#000000" fill-opacity="0.0" d="m387.73752 302.93307l0 0c0 7.368866 -57.871582 13.342529 -129.25983 13.342529c-71.388245 0 -129.25984 -5.9736633 -129.25984 -13.342529l0 0c0 -7.368866 57.871597 -13.342529 129.25984 -13.342529c71.388245 0 129.25983 5.9736633 129.25983 13.342529l0 80.055115c0 7.368866 -57.871582 13.342529 -129.25983 13.342529c-71.388245 0 -129.25984 -5.9736633 -129.25984 -13.342529l0 -80.055115" fill-rule="evenodd"></path><path stroke="#000000" stroke-width="1.0" stroke-linejoin="round" stroke-linecap="butt" d="m387.73752 302.93307l0 0c0 7.368866 -57.871582 13.342529 -129.25983 13.342529c-71.388245 0 -129.25984 -5.9736633 -129.25984 -13.342529l0 0c0 -7.368866 57.871597 -13.342529 129.25984 -13.342529c71.388245 0 129.25983 5.9736633 129.25983 13.342529l0 80.055115c0 7.368866 -57.871582 13.342529 -129.25983 13.342529c-71.388245 0 -129.25984 -5.9736633 -129.25984 -13.342529l0 -80.055115" fill-rule="evenodd"></path><path fill="#000000" d="m187.00894 361.3519l0 -22.90625l3.03125 0l0 20.203125l11.28125 0l0 2.703125l-14.3125 0zm17.578125 -19.671875l0 -3.234375l2.8125 0l0 3.234375l-2.8125 0zm0 19.671875l0 -16.59375l2.8125 0l0 16.59375l-2.8125 0zm7.09375 0l0 -16.59375l2.53125 0l0 2.359375q1.828125 -2.734375 5.28125 -2.734375q1.5 0 2.75 0.546875q1.265625 0.53125 1.890625 1.40625q0.625 0.875 0.875 2.078125q0.15625 0.78125 0.15625 2.734375l0 10.203125l-2.8125 0l0 -10.09375q0 -1.71875 -0.328125 -2.5625q-0.328125 -0.859375 -1.171875 -1.359375q-0.828125 -0.515625 -1.953125 -0.515625q-1.796875 0 -3.109375 1.140625q-1.296875 1.140625 -1.296875 4.328125l0 9.0625l-2.8125 0zm29.15625 -5.34375l2.90625 0.359375q-0.6875 2.546875 -2.546875 3.953125q-1.859375 1.40625 -4.75 1.40625q-3.640625 0 -5.78125 -2.234375q-2.125 -2.25 -2.125 -6.296875q0 -4.1875 2.15625 -6.5q2.15625 -2.3125 5.59375 -2.3125q3.328125 0 5.4375 2.265625q2.109375 2.265625 2.109375 6.375q0 0.25 -0.015625 0.75l-12.375 0q0.15625 2.734375 1.546875 4.1875q1.390625 1.453125 3.46875 1.453125q1.546875 0 2.640625 -0.8125q1.09375 -0.8125 1.734375 -2.59375zm-9.234375 -4.546875l9.265625 0q-0.1875 -2.09375 -1.0625 -3.140625q-1.34375 -1.625 -3.484375 -1.625q-1.9375 0 -3.265625 1.296875q-1.3125 1.296875 -1.453125 3.46875zm25.4375 9.890625l0 -22.90625l3.03125 0l0 22.90625l-3.03125 0zm14.15625 -2.515625l0.40625 2.484375q-1.1875 0.25 -2.125 0.25q-1.53125 0 -2.375 -0.484375q-0.84375 -0.484375 -1.1875 -1.265625q-0.34375 -0.796875 -0.34375 -3.328125l0 -9.546875l-2.0625 0l0 -2.1875l2.0625 0l0 -4.109375l2.796875 -1.6875l0 5.796875l2.828125 0l0 2.1875l-2.828125 0l0 9.703125q0 1.203125 0.140625 1.546875q0.15625 0.34375 0.484375 0.546875q0.34375 0.203125 0.96875 0.203125q0.46875 0 1.234375 -0.109375zm14.109375 -2.828125l2.90625 0.359375q-0.6875 2.546875 -2.546875 3.953125q-1.859375 1.40625 -4.75 1.40625q-3.640625 0 -5.78125 -2.234375q-2.125 -2.25 -2.125 -6.296875q0 -4.1875 2.15625 -6.5q2.15625 -2.3125 5.59375 -2.3125q3.328125 0 5.4375 2.265625q2.109375 2.265625 2.109375 6.375q0 0.25 -0.015625 0.75l-12.375 0q0.15625 2.734375 1.546875 4.1875q1.390625 1.453125 3.46875 1.453125q1.546875 0 2.640625 -0.8125q1.09375 -0.8125 1.734375 -2.59375zm-9.234375 -4.546875l9.265625 0q-0.1875 -2.09375 -1.0625 -3.140625q-1.34375 -1.625 -3.484375 -1.625q-1.9375 0 -3.265625 1.296875q-1.3125 1.296875 -1.453125 3.46875zm15.671875 9.890625l0 -16.59375l2.515625 0l0 2.328125q0.78125 -1.21875 2.078125 -1.953125q1.296875 -0.75 2.953125 -0.75q1.84375 0 3.015625 0.765625q1.1875 0.765625 1.671875 2.140625q1.96875 -2.90625 5.125 -2.90625q2.46875 0 3.796875 1.375q1.328125 1.359375 1.328125 4.203125l0 11.390625l-2.796875 0l0 -10.453125q0 -1.6875 -0.28125 -2.421875q-0.265625 -0.75 -0.984375 -1.203125q-0.71875 -0.453125 -1.6875 -0.453125q-1.75 0 -2.90625 1.171875q-1.15625 1.15625 -1.15625 3.71875l0 9.640625l-2.8125 0l0 -10.78125q0 -1.875 -0.6875 -2.8125q-0.6875 -0.9375 -2.25 -0.9375q-1.1875 0 -2.203125 0.625q-1.0 0.625 -1.453125 1.828125q-0.453125 1.203125 -0.453125 3.46875l0 8.609375l-2.8125 0zm25.53125 -4.953125l2.78125 -0.4375q0.234375 1.671875 1.296875 2.5625q1.078125 0.890625 3.0 0.890625q1.9375 0 2.875 -0.78125q0.9375 -0.796875 0.9375 -1.859375q0 -0.953125 -0.828125 -1.5q-0.578125 -0.375 -2.875 -0.953125q-3.09375 -0.78125 -4.296875 -1.34375q-1.1875 -0.578125 -1.8125 -1.578125q-0.609375 -1.015625 -0.609375 -2.234375q0 -1.109375 0.5 -2.046875q0.515625 -0.953125 1.390625 -1.578125q0.65625 -0.484375 1.78125 -0.8125q1.140625 -0.34375 2.4375 -0.34375q1.953125 0 3.421875 0.5625q1.484375 0.5625 2.1875 1.53125q0.703125 0.953125 0.96875 2.5625l-2.75 0.375q-0.1875 -1.28125 -1.09375 -2.0q-0.890625 -0.71875 -2.53125 -0.71875q-1.9375 0 -2.765625 0.640625q-0.828125 0.640625 -0.828125 1.5q0 0.546875 0.34375 0.984375q0.34375 0.453125 1.078125 0.75q0.421875 0.15625 2.484375 0.71875q2.984375 0.796875 4.15625 1.3125q1.1875 0.5 1.859375 1.46875q0.671875 0.96875 0.671875 2.40625q0 1.40625 -0.828125 2.65625q-0.8125 1.234375 -2.359375 1.921875q-1.546875 0.671875 -3.5 0.671875q-3.234375 0 -4.9375 -1.34375q-1.6875 -1.34375 -2.15625 -3.984375z" fill-rule="nonzero"></path><path fill="#cfe2f3" d="m122.20998 95.55249l0 0c0 7.3688736 61.009125 13.342522 136.26772 13.342522c75.258575 0 136.2677 -5.973648 136.2677 -13.342522l0 80.055115c0 7.368881 -61.009125 13.342529 -136.2677 13.342529c-75.25859 0 -136.26772 -5.973648 -136.26772 -13.342529z" fill-rule="evenodd"></path><path fill="#e2edf7" d="m122.20998 95.55249l0 0c0 -7.368866 61.009125 -13.342514 136.26772 -13.342514c75.258575 0 136.2677 5.973648 136.2677 13.342514l0 0c0 7.3688736 -61.009125 13.342522 -136.2677 13.342522c-75.25859 0 -136.26772 -5.973648 -136.26772 -13.342522z" fill-rule="evenodd"></path><path fill="#000000" fill-opacity="0.0" d="m394.7454 95.55249l0 0c0 7.3688736 -61.009125 13.342522 -136.2677 13.342522c-75.25859 0 -136.26772 -5.973648 -136.26772 -13.342522l0 0c0 -7.368866 61.009125 -13.342514 136.26772 -13.342514c75.258575 0 136.2677 5.973648 136.2677 13.342514l0 80.055115c0 7.368881 -61.009125 13.342529 -136.2677 13.342529c-75.25859 0 -136.26772 -5.973648 -136.26772 -13.342529l0 -80.055115" fill-rule="evenodd"></path><path stroke="#000000" stroke-width="1.0" stroke-linejoin="round" stroke-linecap="butt" d="m394.7454 95.55249l0 0c0 7.3688736 -61.009125 13.342522 -136.2677 13.342522c-75.25859 0 -136.26772 -5.973648 -136.26772 -13.342522l0 0c0 -7.368866 61.009125 -13.342514 136.26772 -13.342514c75.258575 0 136.2677 5.973648 136.2677 13.342514l0 80.055115c0 7.368881 -61.009125 13.342529 -136.2677 13.342529c-75.25859 0 -136.26772 -5.973648 -136.26772 -13.342529l0 -80.055115" fill-rule="evenodd"></path><path fill="#000000" d="m211.12613 142.81506q0 -5.703125 3.0625 -8.921875q3.0625 -3.234375 7.90625 -3.234375q3.171875 0 5.71875 1.515625q2.546875 1.515625 3.875 4.234375q1.34375 2.703125 1.34375 6.140625q0 3.484375 -1.40625 6.234375q-1.40625 2.75 -3.984375 4.171875q-2.578125 1.40625 -5.5625 1.40625q-3.234375 0 -5.78125 -1.5625q-2.546875 -1.5625 -3.859375 -4.265625q-1.3125 -2.703125 -1.3125 -5.71875zm3.125 0.046875q0 4.140625 2.21875 6.53125q2.234375 2.375 5.59375 2.375q3.421875 0 5.625 -2.40625q2.21875 -2.40625 2.21875 -6.828125q0 -2.796875 -0.953125 -4.875q-0.9375 -2.09375 -2.765625 -3.234375q-1.8125 -1.15625 -4.078125 -1.15625q-3.21875 0 -5.546875 2.21875q-2.3125 2.203125 -2.3125 7.375zm22.296875 11.109375l0 -16.59375l2.53125 0l0 2.515625q0.96875 -1.765625 1.78125 -2.328125q0.828125 -0.5625 1.8125 -0.5625q1.421875 0 2.890625 0.90625l-0.96875 2.609375q-1.03125 -0.609375 -2.0625 -0.609375q-0.921875 0 -1.65625 0.5625q-0.734375 0.546875 -1.046875 1.53125q-0.46875 1.5 -0.46875 3.28125l0 8.6875l-2.8125 0zm21.453125 0l0 -2.09375q-1.578125 2.46875 -4.640625 2.46875q-1.984375 0 -3.65625 -1.09375q-1.65625 -1.09375 -2.578125 -3.046875q-0.90625 -1.96875 -0.90625 -4.515625q0 -2.484375 0.828125 -4.5q0.828125 -2.03125 2.484375 -3.109375q1.65625 -1.078125 3.703125 -1.078125q1.5 0 2.671875 0.640625q1.171875 0.625 1.90625 1.640625l0 -8.21875l2.796875 0l0 22.90625l-2.609375 0zm-8.890625 -8.28125q0 3.1875 1.34375 4.765625q1.34375 1.578125 3.171875 1.578125q1.84375 0 3.125 -1.5q1.296875 -1.515625 1.296875 -4.609375q0 -3.40625 -1.3125 -5.0q-1.3125 -1.59375 -3.234375 -1.59375q-1.875 0 -3.140625 1.53125q-1.25 1.53125 -1.25 4.828125zm27.28125 2.9375l2.90625 0.359375q-0.6875 2.546875 -2.546875 3.953125q-1.859375 1.40625 -4.75 1.40625q-3.640625 0 -5.78125 -2.234375q-2.125 -2.25 -2.125 -6.296875q0 -4.1875 2.15625 -6.5q2.15625 -2.3125 5.59375 -2.3125q3.328125 0 5.4375 2.265625q2.109375 2.265625 2.109375 6.375q0 0.25 -0.015625 0.75l-12.375 0q0.15625 2.734375 1.546875 4.1875q1.390625 1.453125 3.46875 1.453125q1.546875 0 2.640625 -0.8125q1.09375 -0.8125 1.734375 -2.59375zm-9.234375 -4.546875l9.265625 0q-0.1875 -2.09375 -1.0625 -3.140625q-1.34375 -1.625 -3.484375 -1.625q-1.9375 0 -3.265625 1.296875q-1.3125 1.296875 -1.453125 3.46875zm15.640625 9.890625l0 -16.59375l2.53125 0l0 2.515625q0.96875 -1.765625 1.78125 -2.328125q0.828125 -0.5625 1.8125 -0.5625q1.421875 0 2.890625 0.90625l-0.96875 2.609375q-1.03125 -0.609375 -2.0625 -0.609375q-0.921875 0 -1.65625 0.5625q-0.734375 0.546875 -1.046875 1.53125q-0.46875 1.5 -0.46875 3.28125l0 8.6875l-2.8125 0zm9.5625 -4.953125l2.78125 -0.4375q0.234375 1.671875 1.296875 2.5625q1.078125 0.890625 3.0 0.890625q1.9375 0 2.875 -0.78125q0.9375 -0.796875 0.9375 -1.859375q0 -0.953125 -0.828125 -1.5q-0.578125 -0.375 -2.875 -0.953125q-3.09375 -0.78125 -4.296875 -1.34375q-1.1875 -0.578125 -1.8125 -1.578125q-0.609375 -1.015625 -0.609375 -2.234375q0 -1.109375 0.5 -2.046875q0.515625 -0.953125 1.390625 -1.578125q0.65625 -0.484375 1.78125 -0.8125q1.140625 -0.34375 2.4375 -0.34375q1.953125 0 3.421875 0.5625q1.484375 0.5625 2.1875 1.53125q0.703125 0.953125 0.96875 2.5625l-2.75 0.375q-0.1875 -1.28125 -1.09375 -2.0q-0.890625 -0.71875 -2.53125 -0.71875q-1.9375 0 -2.765625 0.640625q-0.828125 0.640625 -0.828125 1.5q0 0.546875 0.34375 0.984375q0.34375 0.453125 1.078125 0.75q0.421875 0.15625 2.484375 0.71875q2.984375 0.796875 4.15625 1.3125q1.1875 0.5 1.859375 1.46875q0.671875 0.96875 0.671875 2.40625q0 1.40625 -0.828125 2.65625q-0.8125 1.234375 -2.359375 1.921875q-1.546875 0.671875 -3.5 0.671875q-3.234375 0 -4.9375 -1.34375q-1.6875 -1.34375 -2.15625 -3.984375z" fill-rule="nonzero"></path><path fill="#cfe2f3" d="m419.20996 127.76903l99.653564 0l0 -7.81102l15.622009 15.62204l-15.622009 15.622055l0 -7.81102l-99.653564 0z" fill-rule="evenodd"></path><path stroke="#000000" stroke-width="1.0" stroke-linejoin="round" stroke-linecap="butt" d="m419.20996 127.76903l99.653564 0l0 -7.81102l15.622009 15.62204l-15.622009 15.622055l0 -7.81102l-99.653564 0z" fill-rule="evenodd"></path><path fill="#cfe2f3" d="m244.30446 471.4895l7.086624 0l0 -61.606293l14.173218 0l0 61.606293l7.086609 0l-14.173218 14.173218z" fill-rule="evenodd"></path><path stroke="#000000" stroke-width="1.0" stroke-linejoin="round" stroke-linecap="butt" d="m244.30446 471.4895l7.086624 0l0 -61.606293l14.173218 0l0 61.606293l7.086609 0l-14.173218 14.173218z" fill-rule="evenodd"></path><path fill="#cfe2f3" d="m244.30446 262.98557l7.086624 0l0 -61.606293l14.173218 0l0 61.606293l7.086609 0l-14.173218 14.173218z" fill-rule="evenodd"></path><path stroke="#000000" stroke-width="1.0" stroke-linejoin="round" stroke-linecap="butt" d="m244.30446 262.98557l7.086624 0l0 -61.606293l14.173218 0l0 61.606293l7.086609 0l-14.173218 14.173218z" fill-rule="evenodd"></path></g></svg>

