<?xml version="1.0" standalone="yes"?>

<svg version="1.1" viewBox="0.0 0.0 421.4435695538058 206.29658792650918" fill="none" stroke="none" stroke-linecap="square" stroke-miterlimit="10" xmlns="http://www.w3.org/2000/svg" xmlns:xlink="http://www.w3.org/1999/xlink"><clipPath id="p.0"><path d="m0 0l421.44357 0l0 206.29659l-421.44357 0l0 -206.29659z" clip-rule="nonzero"></path></clipPath><g clip-path="url(#p.0)"><path fill="#000000" fill-opacity="0.0" d="m0 0l421.44357 0l0 206.29659l-421.44357 0z" fill-rule="evenodd"></path><path fill="#000000" fill-opacity="0.0" d="m3.9366467 -12.439435l408.8504 0l0 204.91339l-408.8504 0z" fill-rule="evenodd"></path><path fill="#ffffff" d="m57.874146 36.50307l0 70.125l12.9375 0q4.625 0 6.59375 1.78125q1.96875 1.78125 1.96875 4.65625q0 2.8125 -1.96875 4.59375q-1.96875 1.78125 -6.59375 1.78125l-38.6875 0q-4.624998 0 -6.593748 -1.78125q-1.96875 -1.78125 -1.96875 -4.65625q0 -2.8125 1.96875 -4.59375q1.96875 -1.78125 6.593748 -1.78125l12.9375 0l0 -53.437496l-11.4375 3.0q-2.749998 0.75 -4.124998 0.75q-2.4375 0 -4.21875 -1.9375q-1.78125 -1.9375 -1.78125 -4.75q0 -2.5625 1.3125 -4.03125q1.3125 -1.46875 5.5 -2.59375l27.562498 -7.125zm80.0625 76.5q0 3.625 -2.5625 6.0625q-2.5625 2.4375 -7.0625 2.4375q-4.5 0 -7.0625 -2.4375q-2.5625 -2.4375 -2.5625 -6.0625q0 -3.625 2.5625 -6.0625q2.5625 -2.4375 7.0625 -2.4375q4.5 0 7.0625 2.4375q2.5625 2.4375 2.5625 6.0625zm95.0 -41.125l0 14.0625q0 12.5 -7.21875 23.9375q-7.21875 11.4375 -20.65625 11.4375q-7.75 0 -13.09375 -3.40625q-5.34375 -3.40625 -10.125 -12.5625q-4.78125 -9.15625 -4.78125 -19.40625l0 -14.0625q0 -12.437496 7.1875 -23.906246q7.1875 -11.46875 20.625 -11.46875q7.6875 0 13.03125 3.375q5.34375 3.375 10.1875 12.53125q4.84375 9.15625 4.84375 19.468746zm-12.875 0q0 -10.437496 -5.8125 -18.249996q-3.3125 -4.3125 -9.3125 -4.3125q-5.8125 0 -9.5 4.75q-5.5625 7.1875 -5.5625 17.812496l0 14.0625q0 10.5 5.875 18.25q3.25 4.3125 9.3125 4.3125q5.75 0 9.4375 -4.75q5.5625 -7.1875 5.5625 -17.8125l0 -14.0625zm71.5 41.125q0 3.625 -2.5625 6.0625q-2.5625 2.4375 -7.0625 2.4375q-4.5 0 -7.0625 -2.4375q-2.5625 -2.4375 -2.5625 -6.0625q0 -3.625 2.5625 -6.0625q2.5625 -2.4375 7.0625 -2.4375q4.5 0 7.0625 2.4375q2.5625 2.4375 2.5625 6.0625zm95.0 -41.125l0 14.0625q0 12.5 -7.21875 23.9375q-7.21875 11.4375 -20.65625 11.4375q-7.75 0 -13.09375 -3.40625q-5.34375 -3.40625 -10.125 -12.5625q-4.78125 -9.15625 -4.78125 -19.40625l0 -14.0625q0 -12.437496 7.1875 -23.906246q7.1875 -11.46875 20.625 -11.46875q7.6875 0 13.03125 3.375q5.34375 3.375 10.1875 12.53125q4.84375 9.15625 4.84375 19.468746zm-12.875 0q0 -10.437496 -5.8125 -18.249996q-3.3125 -4.3125 -9.3125 -4.3125q-5.8125 0 -9.5 4.75q-5.5625 7.1875 -5.5625 17.812496l0 14.0625q0 10.5 5.875 18.25q3.25 4.3125 9.3125 4.3125q5.75 0 9.4375 -4.75q5.5625 -7.1875 5.5625 -17.8125l0 -14.0625z" fill-rule="nonzero"></path><path fill="#000000" fill-opacity="0.0" d="m-0.69617426 137.31647l107.08662 0l0 39.307083l-107.08662 0z" fill-rule="evenodd"></path><path fill="#ffffff" d="m37.32723 169.35648l0 -11.203125l-4.515625 11.203125l-1.484375 0l-4.515625 -11.203125l0 11.203125l-3.40625 0l0 -16.015625l4.78125 0l3.890625 9.671875l3.890625 -9.671875l4.796875 0l0 16.015625l-3.4375 0zm13.488693 0l0 -1.203125q-1.265625 1.484375 -3.671875 1.484375q-1.671875 0 -2.859375 -1.0625q-1.171875 -1.0625 -1.171875 -2.765625q0 -1.703125 1.109375 -2.71875q1.125 -1.03125 2.921875 -1.03125q2.5 0 3.671875 1.421875l0 -1.5625q0 -0.890625 -0.703125 -1.421875q-0.6875 -0.53125 -1.84375 -0.53125q-1.90625 0 -3.375 1.375l-1.15625 -2.046875q2.109375 -1.8125 5.0625 -1.8125q2.453125 0 3.75 1.140625q1.3125 1.140625 1.3125 3.25l0 7.484375l-3.046875 0zm-2.4375 -1.78125q1.671875 0 2.4375 -1.0l0 -1.4375q-0.765625 -1.015625 -2.4375 -1.015625q-0.921875 0 -1.5625 0.46875q-0.625 0.453125 -0.625 1.28125q0 0.828125 0.625 1.265625q0.640625 0.4375 1.5625 0.4375zm10.031967 -11.0625q-0.75 0 -1.296875 -0.515625q-0.53125 -0.53125 -0.53125 -1.296875q0 -0.78125 0.53125 -1.296875q0.546875 -0.515625 1.296875 -0.515625q0.765625 0 1.28125 0.515625q0.53125 0.515625 0.53125 1.296875q0 0.765625 -0.53125 1.296875q-0.515625 0.515625 -1.28125 0.515625zm-2.59375 17.546875q-0.96875 0 -1.59375 -0.171875q-0.625 -0.15625 -1.3125 -0.640625l0.84375 -2.28125q0.6875 0.59375 1.546875 0.59375q0.703125 0 1.140625 -0.453125q0.453125 -0.453125 0.453125 -1.4375l0 -11.90625l3.046875 0l0 11.90625q0 1.984375 -1.03125 3.1875q-1.015625 1.203125 -3.09375 1.203125zm12.5251045 -4.421875q-2.6875 0 -4.40625 -1.71875q-1.7187538 -1.734375 -1.7187538 -4.375q0 -2.640625 1.7187538 -4.34375q1.71875 -1.71875 4.40625 -1.71875q2.6875 0 4.40625 1.71875q1.734375 1.703125 1.734375 4.34375q0 2.671875 -1.734375 4.390625q-1.71875 1.703125 -4.40625 1.703125zm0 -2.703125q1.3125 0 2.140625 -0.9375q0.828125 -0.953125 0.828125 -2.453125q0 -1.4375 -0.828125 -2.390625q-0.828125 -0.96875 -2.140625 -0.96875q-1.28125 0 -2.125 0.9375q-0.828125 0.921875 -0.828125 2.421875q0 1.546875 0.828125 2.46875q0.84375 0.921875 2.125 0.921875zm8.400955 2.421875l0 -11.59375l3.046875 0l0 1.578125q0.625 -0.765625 1.609375 -1.3125q1.0 -0.546875 2.078125 -0.546875l0 2.96875l-0.828125 -0.0625q-0.828125 0 -1.65625 0.390625q-0.828125 0.375 -1.203125 0.921875l0 7.65625l-3.046875 0z" fill-rule="nonzero"></path><path fill="#000000" fill-opacity="0.0" d="m149.69075 137.31647l107.086624 0l0 39.307083l-107.086624 0z" fill-rule="evenodd"></path><path fill="#ffffff" d="m187.28217 169.35648l0 -11.203125l-4.515625 11.203125l-1.484375 0l-4.515625 -11.203125l0 11.203125l-3.40625 0l0 -16.015625l4.78125 0l3.890625 9.671875l3.890625 -9.671875l4.796875 0l0 16.015625l-3.4375 0zm8.051193 -12.84375q-0.75 0 -1.296875 -0.515625q-0.53125 -0.53125 -0.53125 -1.296875q0 -0.78125 0.53125 -1.296875q0.546875 -0.515625 1.296875 -0.515625q0.765625 0 1.28125 0.515625q0.53125 0.515625 0.53125 1.296875q0 0.765625 -0.53125 1.296875q-0.515625 0.515625 -1.28125 0.515625zm-1.515625 12.84375l0 -11.59375l3.046875 0l0 11.59375l-3.046875 0zm13.900101 0l0 -7.015625q0 -2.15625 -2.140625 -2.15625q-1.65625 0 -2.640625 1.375l0 7.796875l-3.046875 0l0 -11.59375l3.046875 0l0 1.515625q0.546875 -0.671875 1.578125 -1.234375q1.03125 -0.5625 2.46875 -0.5625q1.921875 0 2.84375 1.0q0.9375 0.984375 0.9375 2.6875l0 8.1875l-3.046875 0zm11.442825 0.28125q-2.6875 0 -4.40625 -1.71875q-1.7187347 -1.734375 -1.7187347 -4.375q0 -2.640625 1.7187347 -4.34375q1.71875 -1.71875 4.40625 -1.71875q2.6875 0 4.40625 1.71875q1.734375 1.703125 1.734375 4.34375q0 2.671875 -1.734375 4.390625q-1.71875 1.703125 -4.40625 1.703125zm0 -2.703125q1.3125 0 2.140625 -0.9375q0.828125 -0.953125 0.828125 -2.453125q0 -1.4375 -0.828125 -2.390625q-0.828125 -0.96875 -2.140625 -0.96875q-1.28125 0 -2.125 0.9375q-0.828125 0.921875 -0.828125 2.421875q0 1.546875 0.828125 2.46875q0.84375 0.921875 2.125 0.921875zm8.400955 2.421875l0 -11.59375l3.046875 0l0 1.578125q0.625 -0.765625 1.609375 -1.3125q1.0 -0.546875 2.078125 -0.546875l0 2.96875l-0.828125 -0.0625q-0.828125 0 -1.65625 0.390625q-0.828125 0.375 -1.203125 0.921875l0 7.65625l-3.046875 0z" fill-rule="nonzero"></path><path fill="#000000" fill-opacity="0.0" d="m305.6917 137.31647l107.08664 0l0 39.307083l-107.08664 0z" fill-rule="evenodd"></path><path fill="#ffffff" d="m329.80524 169.35648l0 -16.015625l7.5 0q2.4375 0 3.90625 1.4375q1.46875 1.421875 1.46875 3.734375q0 2.28125 -1.5 3.71875q-1.5 1.4375 -3.875 1.4375l-4.09375 0l0 5.6875l-3.40625 0zm7.03125 -8.6875q1.015625 0 1.6875 -0.578125q0.671875 -0.578125 0.671875 -1.578125q0 -1.015625 -0.671875 -1.59375q-0.671875 -0.578125 -1.6875 -0.578125l-3.625 0l0 4.328125l3.625 0zm14.835327 8.6875l0 -1.203125q-1.265625 1.484375 -3.671875 1.484375q-1.671875 0 -2.859375 -1.0625q-1.171875 -1.0625 -1.171875 -2.765625q0 -1.703125 1.109375 -2.71875q1.125 -1.03125 2.921875 -1.03125q2.5 0 3.671875 1.421875l0 -1.5625q0 -0.890625 -0.703125 -1.421875q-0.6875 -0.53125 -1.84375 -0.53125q-1.90625 0 -3.375 1.375l-1.15625 -2.046875q2.109375 -1.8125 5.0625 -1.8125q2.453125 0 3.75 1.140625q1.3125 1.140625 1.3125 3.25l0 7.484375l-3.046875 0zm-2.4375 -1.78125q1.671875 0 2.4375 -1.0l0 -1.4375q-0.765625 -1.015625 -2.4375 -1.015625q-0.921875 0 -1.5625 0.46875q-0.625 0.453125 -0.625 1.28125q0 0.828125 0.625 1.265625q0.640625 0.4375 1.5625 0.4375zm12.406982 2.0625q-3.296875 0 -3.296875 -3.15625l0 -6.046875l-1.921875 0l0 -2.671875l1.921875 0l0 -3.171875l3.078125 0l0 3.171875l2.34375 0l0 2.671875l-2.34375 0l0 5.21875q0 0.5625 0.265625 0.921875q0.28125 0.359375 0.78125 0.359375q0.71875 0 1.0625 -0.34375l0.640625 2.3125q-0.78125 0.734375 -2.53125 0.734375zm9.611969 0q-2.734375 0 -4.4375 -1.71875q-1.703125 -1.734375 -1.703125 -4.375q0 -2.609375 1.703125 -4.328125q1.703125 -1.734375 4.4375 -1.734375q1.78125 0 2.890625 0.65625q1.125 0.640625 1.703125 1.421875l-2.0 1.875q-0.84375 -1.25 -2.4375 -1.25q-1.40625 0 -2.28125 0.9375q-0.875 0.921875 -0.875 2.421875q0 1.515625 0.875 2.453125q0.875 0.9375 2.28125 0.9375q1.546875 0 2.4375 -1.25l2.0 1.84375q-0.578125 0.8125 -1.703125 1.46875q-1.109375 0.640625 -2.890625 0.640625zm14.429077 -0.28125l0 -7.0625q0 -2.109375 -2.15625 -2.109375q-1.59375 0 -2.640625 1.375l0 7.796875l-3.046875 0l0 -16.015625l3.046875 0l0 5.9375q0.546875 -0.671875 1.59375 -1.234375q1.046875 -0.5625 2.484375 -0.5625q1.921875 0 2.84375 0.96875q0.921875 0.96875 0.921875 2.671875l0 8.234375l-3.046875 0z" fill-rule="nonzero"></path></g></svg>

