<?xml version="1.0" encoding="UTF-8" standalone="no"?>
<svg
   xmlns:dc="http://purl.org/dc/elements/1.1/"
   xmlns:cc="http://creativecommons.org/ns#"
   xmlns:rdf="http://www.w3.org/1999/02/22-rdf-syntax-ns#"
   xmlns:svg="http://www.w3.org/2000/svg"
   xmlns="http://www.w3.org/2000/svg"
   viewBox="0 0 515.33502 188.32375"
   height="188.32375"
   width="515.33502"
   xml:space="preserve"
   version="1.1"
   id="svg2"><metadata
     id="metadata8"><rdf:RDF><cc:Work
         rdf:about=""><dc:format>image/svg+xml</dc:format><dc:type
           rdf:resource="http://purl.org/dc/dcmitype/StillImage" /><dc:title></dc:title></cc:Work></rdf:RDF></metadata><defs
     id="defs6"><clipPath
       id="clipPath16"
       clipPathUnits="userSpaceOnUse"><path
         id="path18"
         d="m 0,150.659 412.268,0 L 412.268,0 0,0 0,150.659 Z" /></clipPath><clipPath
       id="clipPath28"
       clipPathUnits="userSpaceOnUse"><path
         id="path30"
         d="m 69.215,6.696 51.662,28.429 10.518,82.907 -62.18,21.441 0,-132.777 z" /></clipPath><radialGradient
       id="radialGradient36"
       spreadMethod="pad"
       gradientTransform="matrix(102.14651,0,0,-102.14651,125.79926,139.47311)"
       gradientUnits="userSpaceOnUse"
       r="1"
       cy="0"
       cx="0"
       fy="0"
       fx="0"><stop
         id="stop38"
         offset="0"
         style="stop-opacity:1;stop-color:#f26723" /><stop
         id="stop40"
         offset="0.39"
         style="stop-opacity:1;stop-color:#e14028" /><stop
         id="stop42"
         offset="1"
         style="stop-opacity:1;stop-color:#e14028" /></radialGradient><clipPath
       id="clipPath50"
       clipPathUnits="userSpaceOnUse"><path
         id="path52"
         d="m 0,150.659 412.268,0 L 412.268,0 0,0 0,150.659 Z" /></clipPath></defs><g
     transform="matrix(1.25,0,0,-1.25,0,188.32375)"
     id="g10"><g
       id="g12"><g
         clip-path="url(#clipPath16)"
         id="g14"><g
           transform="translate(7.0353,118.0321)"
           id="g20"><path
             id="path22"
             style="fill:#f26328;fill-opacity:1;fill-rule:evenodd;stroke:none"
             d="M 0,0 8.02,2.765 C 17.491,1.07 24.408,3.093 27.385,9.443 l 34.795,11.998 0,-132.777 -27.106,14.916 c -2.498,3.582 -6.627,5.673 -12.017,6.613 l -12.539,6.9 -0.04,0.315 c 1.542,5.291 2.218,10.118 -1.592,12.545 l -5.902,46.525 c 1.649,4.975 1.534,9.728 -1.786,14.08 L 0,0 Z" /></g></g></g><g
       id="g24"><g
         clip-path="url(#clipPath28)"
         id="g26"><g
           id="g32"><g
             id="g34"><path
               id="path44"
               style="fill:url(#radialGradient36);stroke:none"
               d="m 69.215,6.696 51.662,28.429 10.518,82.907 -62.18,21.441 0,-132.777 z" /></g></g></g></g><g
       id="g46"><g
         clip-path="url(#clipPath50)"
         id="g48"><g
           transform="translate(95.3668,75.6493)"
           id="g54"><path
             id="path56"
             style="fill:#ffffff;fill-opacity:1;fill-rule:nonzero;stroke:none"
             d="m 0,0 -14.589,-7.94 c 4.032,-1.663 8.064,-3.331 12.093,-5.001 -7.896,-4.309 -15.782,-8.636 -23.656,-12.986 l -0.493,-0.267 c -12.854,-6.973 -25.674,-14.008 -38.448,-21.124 l -0.185,-0.104 12.019,-6.614 c 9.098,5.069 17.967,9.96 27.107,14.955 l 0.487,0.271 c 12.338,6.866 24.713,13.667 37.113,20.421 l 0.522,0.285 0,0.552 c 0.406,3.766 0.824,7.53 1.242,11.294 l 0.006,0.055 0,0.738 -0.619,0.256 L 0,0 Z" /></g><g
           transform="translate(110.693,98.3144)"
           id="g58"><path
             id="path60"
             style="fill:#ffffff;fill-opacity:1;fill-rule:nonzero;stroke:none"
             d="m 0,0 c -13.774,5.474 -27.593,10.834 -41.441,16.117 l -0.358,0.136 c -11.603,4.345 -22.841,8.637 -34.473,12.908 l -19.38,-6.638 c 0,0 35.993,-13.216 53.486,-19.842 l 0.367,-0.139 c 8.799,-3.396 17.582,-6.831 26.346,-10.312 -5.379,-2.865 -10.755,-5.732 -16.13,-8.605 l -0.031,0.013 -10.185,-5.543 -21.248,-11.352 -0.036,0.066 c -11.009,-5.89 -20.738,-11.142 -31.688,-17.137 l 1.591,-12.547 c 5.489,3.037 10.122,5.583 15.629,8.585 9.909,5.401 19.845,10.753 29.797,16.077 l 5.955,3.187 0.48,0.259 c 13.366,7.252 26.742,14.444 40.172,21.579 l 0.532,0.281 0,0.559 c 0.419,3.765 0.837,7.531 1.242,11.298 l 0.005,0.054 0,0.745 L 0,0 Z" /></g><g
           transform="translate(62.5519,75.0165)"
           id="g62"><path
             id="path64"
             style="fill:#ffffff;fill-opacity:1;fill-rule:nonzero;stroke:none"
             d="m 0,0 6.663,3.56 8.074,4.395 c -2.57,1 -5.139,1.998 -7.712,2.993 l -0.362,0.14 -6.075,2.305 c -18.464,7.005 -54.907,20.18 -54.907,20.18 l 1.786,-14.079 C -34.628,13.016 -17.941,6.826 -0.149,0.057 L 0,0 Z" /></g><g
           transform="translate(159.6222,84.8046)"
           id="g66"><path
             id="path68"
             style="fill:#4e4e4e;fill-opacity:1;fill-rule:nonzero;stroke:none"
             d="m 0,0 14.909,0 c 0.809,0 1.442,-0.156 1.885,-0.469 0.411,-0.339 0.62,-0.952 0.62,-1.839 0,-1.409 -0.835,-2.113 -2.505,-2.113 L 0,-4.421 0,0 Z m -8.609,16.794 0,-27.985 26.023,0 c 3.078,0 5.282,0.587 6.613,1.761 1.33,1.173 1.996,3.17 1.996,5.986 0,3.262 -1.292,5.466 -3.868,6.614 0.809,0.366 1.487,1.043 2.035,2.034 0.547,0.992 0.822,2.218 0.822,3.679 0,3.313 -0.913,5.557 -2.746,6.731 -1.226,0.789 -3.183,1.18 -5.864,1.18 l -25.011,0 z M 0,10.019 l 15.268,0 c 0.698,0 1.232,-0.144 1.597,-0.432 0.366,-0.287 0.549,-0.769 0.549,-1.454 0,-0.646 -0.183,-1.114 -0.542,-1.402 -0.398,-0.313 -0.933,-0.47 -1.604,-0.47 L 0,6.261 0,10.019 Z m 31.305,6.769 25.045,0 c 3.079,0 5.257,-0.561 6.535,-1.682 1.383,-1.227 2.074,-3.379 2.074,-6.457 C 64.959,6.275 64.672,4.5 64.098,3.333 63.499,2.152 62.5,1.292 61.091,0.744 c 1.559,-0.678 2.602,-1.37 3.124,-2.075 0.496,-0.704 0.744,-1.903 0.744,-3.6 l 0,-6.26 -8.609,0 0,5.009 c 0,0.73 -0.208,1.356 -0.632,1.878 -0.49,0.626 -1.22,0.939 -2.185,0.939 l -13.618,0 0,-7.826 -8.61,0 0,27.979 z m 8.61,-7.24 0,-5.673 13.806,0 c 0.946,0 1.624,0.208 2.036,0.619 0.398,0.398 0.593,1.129 0.593,2.197 0,1.071 -0.208,1.814 -0.632,2.225 -0.412,0.423 -1.077,0.632 -1.997,0.632 l -13.806,0 z m 32.557,7.156 8.609,0 0,-27.935 -8.609,0 0,27.935 z m 14.323,-27.895 0,27.979 30.138,0 0,-6.769 -21.529,0 0,-3.875 20.544,0 0,-6.73 -20.544,0 0,-3.835 21.529,0 0,-6.77 -30.138,0 z M 132.344,0 147.253,0 c 0.809,0 1.442,-0.156 1.885,-0.469 0.411,-0.339 0.619,-0.952 0.619,-1.839 0,-1.409 -0.835,-2.113 -2.504,-2.113 l -14.909,0 0,4.421 z m -8.609,16.794 0,-27.985 26.022,0 c 3.078,0 5.284,0.587 6.615,1.761 1.33,1.173 1.995,3.17 1.995,5.986 0,3.262 -1.291,5.466 -3.867,6.614 0.808,0.366 1.487,1.043 2.035,2.034 0.548,0.992 0.821,2.218 0.821,3.679 0,3.313 -0.913,5.557 -2.746,6.731 -1.226,0.789 -3.183,1.18 -5.863,1.18 l -25.012,0 z m 8.609,-6.775 15.268,0 c 0.698,0 1.233,-0.144 1.597,-0.432 0.366,-0.287 0.548,-0.769 0.548,-1.454 0,-0.646 -0.182,-1.114 -0.54,-1.402 -0.398,-0.313 -0.933,-0.47 -1.605,-0.47 l -15.268,0 0,3.758 z m 67.073,6.736 0,-17.029 c 0,-5.06 -1.11,-8.243 -3.327,-9.554 -2.002,-1.193 -6.828,-1.794 -14.472,-1.794 -7.618,0 -12.438,0.601 -14.447,1.794 -2.216,1.336 -3.326,4.52 -3.326,9.554 l 0,17.029 8.61,0 0,-17.029 c 0,-1.695 0.469,-2.778 1.415,-3.247 1.123,-0.574 3.705,-0.861 7.748,-0.861 3.985,0 6.515,0.274 7.586,0.821 1.068,0.522 1.603,1.618 1.603,3.287 l 0,17.029 8.61,0 z m 43.436,-10.103 -8.608,0 c 0,1.644 -0.406,2.609 -1.214,2.896 -0.809,0.262 -3.6,0.391 -8.38,0.391 -4.769,0 -7.56,-0.299 -8.368,-0.899 -0.809,-0.607 -1.213,-2.707 -1.213,-6.307 0,-3.568 0.404,-5.641 1.213,-6.215 0.782,-0.601 3.588,-0.9 8.406,-0.9 4.808,0 7.599,0.117 8.381,0.345 0.783,0.235 1.175,1.096 1.175,2.59 l -10.639,0 0,6.26 19.247,0 c 0,-6.078 -0.222,-9.926 -0.665,-11.543 -0.626,-2.27 -2.191,-3.691 -4.695,-4.272 -1.853,-0.411 -6.118,-0.62 -12.804,-0.62 -8.765,0 -13.989,0.705 -15.685,2.114 -1.695,1.382 -2.544,5.471 -2.544,12.28 0,6.809 0.822,10.892 2.466,12.249 1.747,1.441 6.998,2.158 15.763,2.158 8.407,0 13.481,-0.482 15.235,-1.454 1.952,-1.07 2.929,-4.09 2.929,-9.073" /></g></g></g><text
       id="text70"
       style="font-variant:normal;font-weight:normal;font-stretch:normal;font-size:24.26379967px;font-family:'PT Sans';-inkscape-font-specification:PTSans-Regular;writing-mode:lr-tb;fill:#4e4e4e;fill-opacity:1;fill-rule:nonzero;stroke:none"
       transform="matrix(1,0,0,-1,150.0444,49.3706)"><tspan
         id="tspan72"
         y="0"
         x="0 20.842604 32.319382 50.32312 61.7999 74.999405 92.008331 104.06744 115.51995 136.36255 153.66264 165.72176 177.19853 193.60086 210.90096 224.12473 241.4248">Digital Delivered</tspan></text>
</g></svg>