<?xml version="1.0" standalone="yes"?>

<svg version="1.1" viewBox="0.0 0.0 1285.3595800524934 816.0157480314961" fill="none" stroke="none" stroke-linecap="square" stroke-miterlimit="10" xmlns="http://www.w3.org/2000/svg" xmlns:xlink="http://www.w3.org/1999/xlink"><clipPath id="p.0"><path d="m0 0l1285.3596 0l0 816.01575l-1285.3596 0l0 -816.01575z" clip-rule="nonzero"></path></clipPath><g clip-path="url(#p.0)"><path fill="#000000" fill-opacity="0.0" d="m0 0l1285.3596 0l0 816.01575l-1285.3596 0z" fill-rule="nonzero"></path><path fill="#3c78d8" d="m293.41376 408.0084l38.37793 -76.75589l100.44095 0l38.37796 76.75589l-38.37796 76.75586l-100.44095 0z" fill-rule="nonzero"></path><path stroke="#ffffff" stroke-width="4.0" stroke-linejoin="round" stroke-linecap="butt" d="m293.41376 408.0084l38.37793 -76.75589l100.44095 0l38.37796 76.75589l-38.37796 76.75586l-100.44095 0z" fill-rule="nonzero"></path><path fill="#ffffff" d="m341.84616 401.09525l1.125 -2.734375q1.8125 1.265625 3.546875 1.265625q2.6875 0 2.6875 -1.875q0 -0.875 -0.640625 -1.671875q-0.625 -0.796875 -2.609375 -1.78125q-1.96875 -1.0 -2.65625 -1.625q-0.671875 -0.640625 -1.046875 -1.515625q-0.375 -0.890625 -0.375 -1.953125q0 -2.0 1.453125 -3.3125q1.46875 -1.3125 3.75 -1.3125q2.984375 0 4.375 1.125l-0.921875 2.625q-1.609375 -1.15625 -3.390625 -1.15625q-1.046875 0 -1.640625 0.5625q-0.578125 0.546875 -0.578125 1.4375q0 1.484375 3.28125 3.078125q1.71875 0.84375 2.46875 1.5625q0.765625 0.703125 1.15625 1.640625q0.40625 0.9375 0.40625 2.109375q0 2.078125 -1.640625 3.4375q-1.640625 1.34375 -4.40625 1.34375q-2.40625 0 -4.34375 -1.25zm24.113281 -4.421875l-8.953125 0q0.078125 1.5 1.015625 2.328125q0.953125 0.828125 2.5625 0.828125q2.0 0 3.046875 -1.046875l1.140625 2.25q-1.546875 1.25 -4.625 1.25q-2.859375 0 -4.53125 -1.671875q-1.671875 -1.6875 -1.671875 -4.703125q0 -2.96875 1.828125 -4.796875q1.84375 -1.84375 4.40625 -1.84375q2.734375 0 4.375 1.625q1.65625 1.625 1.65625 4.140625q0 0.546875 -0.25 1.640625zm-8.859375 -2.203125l6.171875 0q-0.3125 -2.765625 -3.046875 -2.765625q-2.515625 0 -3.125 2.765625zm18.714844 -2.25q-0.796875 -0.515625 -1.734375 -0.515625q-1.015625 0 -1.8125 0.9375q-0.78125 0.921875 -0.78125 2.25l0 7.15625l-2.9375 0l0 -12.546875l2.9375 0l0 1.140625q1.234375 -1.375 3.265625 -1.375q1.5 0 2.296875 0.453125l-1.234375 2.5zm8.191406 10.0625l-1.046875 0l-5.671875 -12.78125l3.203125 0l3.0 7.65625l3.234375 -7.65625l3.09375 0l-5.8125 12.78125zm9.75 -17.65625q0.703125 0 1.203125 0.5q0.5 0.5 0.5 1.203125q0 0.703125 -0.5 1.203125q-0.5 0.5 -1.203125 0.5q-0.703125 0 -1.203125 -0.5q-0.484375 -0.5 -0.484375 -1.203125q0 -0.703125 0.484375 -1.203125q0.5 -0.5 1.203125 -0.5zm-1.5 17.421875l0 -10.15625l-1.609375 0l0 -2.390625l4.5625 0l0 12.546875l-2.953125 0zm16.207031 -11.5625l-1.25 2.203125q-1.03125 -0.984375 -2.765625 -0.984375q-1.65625 0 -2.625 1.109375q-0.96875 1.109375 -0.96875 3.0625q0 3.953125 3.765625 3.953125q1.625 0 2.859375 -1.078125l1.078125 2.3125q-1.265625 0.796875 -2.234375 1.0q-0.953125 0.21875 -2.25 0.21875q-2.90625 0 -4.59375 -1.6875q-1.671875 -1.703125 -1.671875 -4.71875q0 -2.953125 1.828125 -4.78125q1.84375 -1.828125 5.03125 -1.828125q2.1875 0 3.796875 1.21875zm13.640625 6.1875l-8.953125 0q0.078125 1.5 1.015625 2.328125q0.953125 0.828125 2.5625 0.828125q2.0 0 3.046875 -1.046875l1.140625 2.25q-1.546875 1.25 -4.625 1.25q-2.859375 0 -4.53125 -1.671875q-1.671875 -1.6875 -1.671875 -4.703125q0 -2.96875 1.828125 -4.796875q1.84375 -1.84375 4.40625 -1.84375q2.734375 0 4.375 1.625q1.65625 1.625 1.65625 4.140625q0 0.546875 -0.25 1.640625zm-8.859375 -2.203125l6.171875 0q-0.3125 -2.765625 -3.046875 -2.765625q-2.515625 0 -3.125 2.765625z" fill-rule="nonzero"></path><path fill="#ffffff" d="m356.48483 431.28275l-1.25 0l-3.75 -10.828125l-3.640625 10.828125l-1.25 0l-5.640625 -17.40625l3.171875 0l3.21875 10.359375l3.484375 -10.359375l1.34375 0l3.484375 10.359375l3.21875 -10.359375l3.171875 0l-5.5625 17.40625zm6.3828125 -6.546875q0 -2.859375 1.65625 -4.65625q1.65625 -1.8125 4.375 -1.8125q2.859375 0 4.4375 1.734375q1.59375 1.734375 1.59375 4.734375q0 3.0 -1.625 4.78125q-1.609375 1.765625 -4.40625 1.765625q-2.859375 0 -4.453125 -1.78125q-1.578125 -1.796875 -1.578125 -4.765625zm3.046875 0q0 4.15625 2.984375 4.15625q1.375 0 2.171875 -1.078125q0.8125 -1.078125 0.8125 -3.078125q0 -4.078125 -2.984375 -4.078125q-1.375 0 -2.1875 1.078125q-0.796875 1.078125 -0.796875 3.0zm18.613281 -3.515625q-0.796875 -0.515625 -1.734375 -0.515625q-1.015625 0 -1.8125 0.9375q-0.78125 0.921875 -0.78125 2.25l0 7.15625l-2.9375 0l0 -12.546875l2.9375 0l0 1.140625q1.234375 -1.375 3.265625 -1.375q1.5 0 2.296875 0.453125l-1.234375 2.5zm11.019531 9.828125l-3.6875 -5.6875l-1.40625 1.484375l0 4.203125l-2.9375 0l0 -17.234375l2.9375 -0.703125l0 10.203125l4.1875 -4.8125l3.515625 0l-4.234375 4.75l5.109375 7.796875l-3.484375 0zm16.320312 -5.375l-8.953125 0q0.078125 1.5 1.015625 2.328125q0.953125 0.828125 2.5625 0.828125q2.0 0 3.046875 -1.046875l1.140625 2.25q-1.546875 1.25 -4.625 1.25q-2.859375 0 -4.53125 -1.671875q-1.671875 -1.6875 -1.671875 -4.703125q0 -2.96875 1.828125 -4.796875q1.84375 -1.84375 4.40625 -1.84375q2.734375 0 4.375 1.625q1.65625 1.625 1.65625 4.140625q0 0.546875 -0.25 1.640625zm-8.859375 -2.203125l6.171875 0q-0.3125 -2.765625 -3.046875 -2.765625q-2.515625 0 -3.125 2.765625zm18.714844 -2.25q-0.796875 -0.515625 -1.734375 -0.515625q-1.015625 0 -1.8125 0.9375q-0.78125 0.921875 -0.78125 2.25l0 7.15625l-2.9375 0l0 -12.546875l2.9375 0l0 1.140625q1.234375 -1.375 3.265625 -1.375q1.5 0 2.296875 0.453125l-1.234375 2.5z" fill-rule="nonzero"></path><path fill="#3c78d8" d="m468.55563 312.18442l38.37793 -76.755875l100.44095 0l38.37793 76.755875l-38.37793 76.75586l-100.44095 0z" fill-rule="nonzero"></path><path stroke="#ffffff" stroke-width="4.0" stroke-linejoin="round" stroke-linecap="butt" d="m468.55563 312.18442l38.37793 -76.755875l100.44095 0l38.37793 76.755875l-38.37793 76.75586l-100.44095 0z" fill-rule="nonzero"></path><path fill="#ffffff" d="m523.072 306.45877l-1.25 0l-3.75 -10.828125l-3.640625 10.828125l-1.25 0l-5.640625 -17.40625l3.171875 0l3.21875 10.359375l3.484375 -10.359375l1.34375 0l3.484375 10.359375l3.21875 -10.359375l3.171875 0l-5.5625 17.40625zm18.398438 -5.609375l-8.953125 0q0.078125 1.5 1.015625 2.328125q0.953125 0.828125 2.5625 0.828125q2.0 0 3.046875 -1.046875l1.140625 2.25q-1.546875 1.25 -4.625 1.25q-2.859375 0 -4.53125 -1.671875q-1.671875 -1.6875 -1.671875 -4.703125q0 -2.96875 1.828125 -4.796875q1.84375 -1.84375 4.40625 -1.84375q2.734375 0 4.375 1.625q1.65625 1.625 1.65625 4.140625q0 0.546875 -0.25 1.640625zm-8.859375 -2.203125l6.171875 0q-0.3125 -2.765625 -3.046875 -2.765625q-2.515625 0 -3.125 2.765625zm13.527344 6.890625l-0.65625 0.921875l-1.65625 0l0 -17.46875l2.9375 -0.703125l0 5.859375q1.171875 -0.703125 2.546875 -0.703125q2.765625 0 4.453125 1.734375q1.6875 1.734375 1.6875 4.453125q0 3.15625 -1.703125 5.0q-1.703125 1.828125 -4.609375 1.828125q-1.75 0 -3.0 -0.921875zm0.625 -8.875l0 6.546875q0.640625 0.765625 1.75 0.765625q2.109375 0 3.0 -1.0q0.890625 -1.015625 0.890625 -3.234375q0 -3.8125 -3.65625 -3.8125q-1.3125 0 -1.984375 0.734375zm28.6875 9.5625l-1.25 -3.484375l-5.890625 0l-1.1875 3.484375l-3.390625 0l6.84375 -17.40625l1.328125 0l6.90625 17.40625l-3.359375 0zm-4.203125 -12.15625l-2.0625 6.34375l4.125 0l-2.0625 -6.34375zm11.902344 11.84375l0 5.234375l-2.9375 0l0 -17.46875l2.9375 0l0 0.84375q1.09375 -1.078125 2.703125 -1.078125q6.0 0 6.0 6.609375q0 3.078125 -1.65625 4.75q-1.65625 1.65625 -4.53125 1.65625q-1.375 0 -2.515625 -0.546875zm0 -9.171875l0 6.59375q0.796875 0.65625 1.859375 0.65625q2.03125 0 2.90625 -0.96875q0.890625 -0.96875 0.890625 -3.0625q0 -2.21875 -0.875 -3.125q-0.875 -0.90625 -2.90625 -0.90625q-1.0625 0 -1.875 0.8125zm13.980469 9.171875l0 5.234375l-2.9375 0l0 -17.46875l2.9375 0l0 0.84375q1.09375 -1.078125 2.703125 -1.078125q6.0 0 6.0 6.609375q0 3.078125 -1.65625 4.75q-1.65625 1.65625 -4.53125 1.65625q-1.375 0 -2.515625 -0.546875zm0 -9.171875l0 6.59375q0.796875 0.65625 1.859375 0.65625q2.03125 0 2.90625 -0.96875q0.890625 -0.96875 0.890625 -3.0625q0 -2.21875 -0.875 -3.125q-0.875 -0.90625 -2.90625 -0.90625q-1.0625 0 -1.875 0.8125z" fill-rule="nonzero"></path><path fill="#ffffff" d="m527.6638 335.24002l-2.953125 0l-1.78125 -9.265625l-3.453125 9.484375l-1.09375 0l-3.453125 -9.484375l-1.859375 9.265625l-2.9375 0l3.453125 -17.1875l1.625 0l3.71875 11.5625l3.625 -11.5625l1.609375 0l3.5 17.1875zm8.6796875 -1.265625q-0.390625 0.65625 -1.390625 1.078125q-0.984375 0.40625 -2.0625 0.40625q-2.03125 0 -3.1875 -1.015625q-1.15625 -1.015625 -1.15625 -2.875q0 -2.1875 1.625 -3.40625q1.640625 -1.234375 4.65625 -1.234375q0.515625 0 1.21875 0.171875q0 -2.21875 -2.796875 -2.21875q-1.65625 0 -2.765625 0.5625l-0.640625 -2.28125q1.515625 -0.71875 3.59375 -0.71875q2.875 0 4.203125 1.3125q1.34375 1.296875 1.34375 4.9375l0 2.6875q0 2.5 1.015625 3.15625q-0.375 0.625 -0.828125 0.765625q-0.4375 0.15625 -1.0 0.15625q-0.640625 0 -1.140625 -0.46875q-0.5 -0.46875 -0.6875 -1.015625zm-0.28125 -4.65625q-0.75 -0.15625 -1.125 -0.15625q-3.46875 0 -3.46875 2.28125q0 1.6875 1.96875 1.6875q2.625 0 2.625 -2.640625l0 -1.171875zm14.160156 5.90625l0 -7.25q0 -1.609375 -0.625 -2.34375q-0.609375 -0.75 -2.0 -0.75q-0.640625 0 -1.375 0.375q-0.734375 0.359375 -1.140625 0.890625l0 9.078125l-2.9375 0l0 -12.546875l2.109375 0l0.546875 1.171875q1.1875 -1.40625 3.53125 -1.40625q2.234375 0 3.53125 1.34375q1.296875 1.328125 1.296875 3.734375l0 7.703125l-2.9375 0zm8.386719 -17.421875q0.703125 0 1.203125 0.5q0.5 0.5 0.5 1.203125q0 0.703125 -0.5 1.203125q-0.5 0.5 -1.203125 0.5q-0.703125 0 -1.203125 -0.5q-0.484375 -0.5 -0.484375 -1.203125q0 -0.703125 0.484375 -1.203125q0.5 -0.5 1.203125 -0.5zm-1.5 17.421875l0 -10.15625l-1.609375 0l0 -2.390625l4.5625 0l0 12.546875l-2.953125 0zm13.363281 -15.015625q-0.953125 -0.3125 -1.46875 -0.3125q-0.84375 0 -1.421875 0.71875q-0.578125 0.703125 -0.578125 1.75q0 0.15625 0.015625 0.3125l2.59375 0l0 2.40625l-2.546875 0l0 10.140625l-2.9375 0l0 -10.140625l-1.828125 0l0 -2.40625l1.84375 0q0.09375 -2.3125 1.359375 -3.734375q1.28125 -1.421875 3.296875 -1.421875q1.046875 0 2.546875 0.46875l-0.875 2.21875zm13.074219 9.640625l-8.953125 0q0.078125 1.5 1.015625 2.328125q0.953125 0.828125 2.5625 0.828125q2.0 0 3.046875 -1.046875l1.140625 2.25q-1.546875 1.25 -4.625 1.25q-2.859375 0 -4.53125 -1.671875q-1.671875 -1.6875 -1.671875 -4.703125q0 -2.96875 1.828125 -4.796875q1.84375 -1.84375 4.40625 -1.84375q2.734375 0 4.375 1.625q1.65625 1.625 1.65625 4.140625q0 0.546875 -0.25 1.640625zm-8.859375 -2.203125l6.171875 0q-0.3125 -2.765625 -3.046875 -2.765625q-2.515625 0 -3.125 2.765625zm10.683594 6.765625l1.046875 -2.328125q1.3125 1.046875 2.953125 1.046875q1.71875 0 1.71875 -1.21875q0 -0.71875 -0.515625 -1.171875q-0.515625 -0.46875 -2.0 -1.078125q-3.25 -1.359375 -3.25 -3.78125q0 -1.625 1.234375 -2.53125q1.25 -0.90625 3.1875 -0.90625q1.953125 0 3.671875 0.875l-0.84375 2.265625q-0.953125 -0.8125 -2.671875 -0.8125q-1.53125 0 -1.53125 1.21875q0 0.484375 0.5 0.875q0.5 0.375 2.15625 1.03125q1.65625 0.640625 2.375 1.578125q0.734375 0.921875 0.734375 2.234375q0 1.75 -1.296875 2.75q-1.296875 1.0 -3.515625 1.0q-1.265625 0 -2.015625 -0.203125q-0.75 -0.203125 -1.9375 -0.84375zm11.5546875 -9.390625l-1.453125 0l0 -2.34375l1.453125 0l0 -2.5625l2.921875 -1.078125l0 3.640625l3.453125 0l0 2.34375l-3.453125 0l0 5.5q0 1.34375 0.421875 1.90625q0.421875 0.5625 1.484375 0.5625q1.046875 0 1.96875 -0.578125l0 2.6875q-1.015625 0.359375 -2.90625 0.359375q-1.875 0 -2.890625 -1.0625q-1.0 -1.0625 -1.0 -3.015625l0 -6.359375z" fill-rule="nonzero"></path><path fill="#3c78d8" d="m468.55563 506.7954l38.37793 -76.75586l100.44095 0l38.37793 76.75586l-38.37793 76.75586l-100.44095 0z" fill-rule="nonzero"></path><path stroke="#ffffff" stroke-width="4.0" stroke-linejoin="round" stroke-linecap="butt" d="m468.55563 506.7954l38.37793 -76.75586l100.44095 0l38.37793 76.75586l-38.37793 76.75586l-100.44095 0z" fill-rule="nonzero"></path><path fill="#ffffff" d="m542.7478 498.93668l0 4.21875l-2.03125 0l0 -11.4375q2.03125 -0.09375 2.375 -0.09375q2.71875 0 3.96875 0.84375q1.25 0.828125 1.25 2.59375q0 3.9375 -4.640625 3.9375q-0.34375 0 -0.921875 -0.0625zm0 -5.46875l0 3.671875q0.515625 0.046875 0.8125 0.046875q1.390625 0 2.03125 -0.453125q0.640625 -0.46875 0.640625 -1.515625q0 -1.78125 -2.859375 -1.78125q-0.328125 0 -0.625 0.03125zm12.640625 9.703125l0 -0.71875q-0.421875 0.359375 -1.15625 0.609375q-0.71875 0.25 -1.328125 0.25q-2.90625 0 -2.90625 -3.09375l0 -5.4375l1.953125 0l0 5.28125q0 1.609375 1.4375 1.609375q0.671875 0 1.234375 -0.34375q0.578125 -0.34375 0.765625 -0.796875l0 -5.75l1.953125 0l0 8.390625l-1.953125 0zm3.546875 -0.5625l0.6875 -1.546875q0.875 0.6875 1.984375 0.6875q1.140625 0 1.140625 -0.8125q0 -0.46875 -0.34375 -0.765625q-0.34375 -0.3125 -1.34375 -0.734375q-2.15625 -0.890625 -2.15625 -2.515625q0 -1.078125 0.828125 -1.6875q0.828125 -0.609375 2.109375 -0.609375q1.3125 0 2.453125 0.59375l-0.5625 1.515625q-0.640625 -0.546875 -1.78125 -0.546875q-1.015625 0 -1.015625 0.8125q0 0.3125 0.328125 0.578125q0.34375 0.25 1.4375 0.6875q1.109375 0.4375 1.59375 1.0625q0.484375 0.609375 0.484375 1.484375q0 1.15625 -0.875 1.828125q-0.859375 0.671875 -2.34375 0.671875q-0.828125 0 -1.34375 -0.140625q-0.5 -0.140625 -1.28125 -0.5625zm12.8125 0.546875l0 -5.15625q0 -0.78125 -0.484375 -1.25q-0.484375 -0.46875 -1.265625 -0.46875q-0.484375 0 -0.984375 0.265625q-0.484375 0.265625 -0.6875 0.59375l0 6.015625l-1.984375 0l0 -11.484375l1.984375 -0.46875l0 4.109375q0.75 -0.6875 2.078125 -0.6875q1.578125 0 2.4375 0.875q0.875 0.875 0.875 2.5l0 5.15625l-1.96875 0z" fill-rule="nonzero"></path><path fill="#ffffff" d="m518.46265 522.31165l-5.5625 -7.25l0 7.109375l-1.953125 0l0 -11.4687195l0.984375 0l5.40625 6.9062195l0 -6.9062195l1.953125 0l0 11.6093445l-0.828125 0zm2.5078125 -4.359375q0 -1.921875 1.09375 -3.125q1.109375 -1.203125 2.921875 -1.203125q1.90625 0 2.953125 1.15625q1.0625 1.15625 1.0625 3.171875q0 2.0 -1.078125 3.1875q-1.0625 1.171875 -2.9375 1.171875q-1.90625 0 -2.96875 -1.1875q-1.046875 -1.203125 -1.046875 -3.171875zm2.03125 0q0 2.765625 1.984375 2.765625q0.921875 0 1.453125 -0.71875q0.53125 -0.71875 0.53125 -2.046875q0 -2.734375 -1.984375 -2.734375q-0.90625 0 -1.453125 0.71875q-0.53125 0.71875 -0.53125 2.015625zm7.8671875 -2.59375l-0.96875 0l0 -1.578125l0.96875 0l0 -1.703125l1.953125 -0.7187195l0 2.4218445l2.296875 0l0 1.578125l-2.296875 0l0 3.65625q0 0.90625 0.28125 1.28125q0.28125 0.359375 0.984375 0.359375q0.703125 0 1.3125 -0.375l0 1.796875q-0.6875 0.234375 -1.9375 0.234375q-1.25 0 -1.921875 -0.703125q-0.671875 -0.71875 -0.671875 -2.015625l0 -4.234375zm7.578125 -4.8124695q0.46875 0 0.796875 0.328125q0.328125 0.328125 0.328125 0.796875q0 0.46871948 -0.328125 0.8124695q-0.328125 0.328125 -0.796875 0.328125q-0.46875 0 -0.8125 -0.328125q-0.328125 -0.34375 -0.328125 -0.8124695q0 -0.46875 0.328125 -0.796875q0.34375 -0.328125 0.8125 -0.328125zm-1.015625 11.6093445l0 -6.765625l-1.0625 0l0 -1.609375l3.046875 0l0 8.375l-1.984375 0zm8.9140625 -10.015625q-0.640625 -0.20309448 -0.984375 -0.20309448q-0.546875 0 -0.9375 0.48434448q-0.390625 0.46875 -0.390625 1.15625q0 0.109375 0.015625 0.203125l1.734375 0l0 1.609375l-1.703125 0l0 6.765625l-1.953125 0l0 -6.765625l-1.21875 0l0 -1.609375l1.21875 0q0.0625 -1.53125 0.90625 -2.4687195q0.859375 -0.953125 2.203125 -0.953125q0.6875 0 1.6875 0.296875l-0.578125 1.4843445zm2.7890625 -1.5937195q0.46875 0 0.796875 0.328125q0.328125 0.328125 0.328125 0.796875q0 0.46871948 -0.328125 0.8124695q-0.328125 0.328125 -0.796875 0.328125q-0.46875 0 -0.8125 -0.328125q-0.328125 -0.34375 -0.328125 -0.8124695q0 -0.46875 0.328125 -0.796875q0.34375 -0.328125 0.8125 -0.328125zm-1.015625 11.6093445l0 -6.765625l-1.0625 0l0 -1.609375l3.046875 0l0 8.375l-1.984375 0zm10.8203125 -7.703125l-0.84375 1.453125q-0.6875 -0.640625 -1.84375 -0.640625q-1.109375 0 -1.75 0.734375q-0.640625 0.734375 -0.640625 2.046875q0 2.625 2.5 2.625q1.09375 0 1.921875 -0.71875l0.71875 1.546875q-0.859375 0.53125 -1.5 0.671875q-0.625 0.140625 -1.5 0.140625q-1.9375 0 -3.0625 -1.125q-1.109375 -1.140625 -1.109375 -3.140625q0 -1.984375 1.21875 -3.203125q1.234375 -1.21875 3.34375 -1.21875q1.46875 0 2.546875 0.828125zm6.28125 6.859375q-0.265625 0.4375 -0.9375 0.71875q-0.65625 0.28125 -1.375 0.28125q-1.34375 0 -2.125 -0.671875q-0.765625 -0.6875 -0.765625 -1.921875q0 -1.453125 1.078125 -2.265625q1.09375 -0.828125 3.109375 -0.828125q0.34375 0 0.8125 0.109375q0 -1.46875 -1.875 -1.46875q-1.09375 0 -1.84375 0.359375l-0.421875 -1.515625q1.015625 -0.484375 2.40625 -0.484375q1.90625 0 2.796875 0.875q0.890625 0.875 0.890625 3.296875l0 1.796875q0 1.671875 0.671875 2.09375q-0.234375 0.421875 -0.53125 0.515625q-0.296875 0.109375 -0.6875 0.109375q-0.421875 0 -0.765625 -0.3125q-0.328125 -0.3125 -0.4375 -0.6875zm-0.1875 -3.09375q-0.5 -0.109375 -0.75 -0.109375q-2.3125 0 -2.3125 1.515625q0 1.125 1.296875 1.125q1.765625 0 1.765625 -1.75l0 -0.78125zm4.3515625 -2.859375l-0.96875 0l0 -1.578125l0.96875 0l0 -1.703125l1.953125 -0.7187195l0 2.4218445l2.296875 0l0 1.578125l-2.296875 0l0 3.65625q0 0.90625 0.28125 1.28125q0.28125 0.359375 0.984375 0.359375q0.703125 0 1.3125 -0.375l0 1.796875q-0.6875 0.234375 -1.9375 0.234375q-1.25 0 -1.921875 -0.703125q-0.671875 -0.71875 -0.671875 -2.015625l0 -4.234375zm7.578125 -4.8124695q0.46875 0 0.796875 0.328125q0.328125 0.328125 0.328125 0.796875q0 0.46871948 -0.328125 0.8124695q-0.328125 0.328125 -0.796875 0.328125q-0.46875 0 -0.8125 -0.328125q-0.328125 -0.34375 -0.328125 -0.8124695q0 -0.46875 0.328125 -0.796875q0.34375 -0.328125 0.8125 -0.328125zm-1.015625 11.6093445l0 -6.765625l-1.0625 0l0 -1.609375l3.046875 0l0 8.375l-1.984375 0zm3.7109375 -4.203125q0 -1.921875 1.09375 -3.125q1.109375 -1.203125 2.921875 -1.203125q1.90625 0 2.953125 1.15625q1.0625 1.15625 1.0625 3.171875q0 2.0 -1.078125 3.1875q-1.0625 1.171875 -2.9375 1.171875q-1.90625 0 -2.96875 -1.1875q-1.046875 -1.203125 -1.046875 -3.171875zm2.03125 0q0 2.765625 1.984375 2.765625q0.921875 0 1.453125 -0.71875q0.53125 -0.71875 0.53125 -2.046875q0 -2.734375 -1.984375 -2.734375q-0.90625 0 -1.453125 0.71875q-0.53125 0.71875 -0.53125 2.015625zm12.9453125 4.203125l0 -4.84375q0 -1.0625 -0.40625 -1.546875q-0.40625 -0.5 -1.34375 -0.5q-0.421875 0 -0.921875 0.25q-0.484375 0.234375 -0.75 0.59375l0 6.046875l-1.953125 0l0 -8.375l1.40625 0l0.359375 0.78125q0.796875 -0.9375 2.34375 -0.9375q1.5 0 2.359375 0.90625q0.859375 0.890625 0.859375 2.484375l0 5.140625l-1.953125 0zm3.5546875 -0.546875l0.6875 -1.546875q0.875 0.6875 1.984375 0.6875q1.140625 0 1.140625 -0.8125q0 -0.46875 -0.34375 -0.765625q-0.34375 -0.3125 -1.34375 -0.734375q-2.15625 -0.890625 -2.15625 -2.515625q0 -1.078125 0.828125 -1.6875q0.828125 -0.609375 2.109375 -0.609375q1.3125 0 2.453125 0.59375l-0.5625 1.515625q-0.640625 -0.546875 -1.78125 -0.546875q-1.015625 0 -1.015625 0.8125q0 0.3125 0.328125 0.578125q0.34375 0.25 1.4375 0.6875q1.109375 0.4375 1.59375 1.0625q0.484375 0.609375 0.484375 1.484375q0 1.15625 -0.875 1.828125q-0.859375 0.671875 -2.34375 0.671875q-0.828125 0 -1.34375 -0.140625q-0.5 -0.140625 -1.28125 -0.5625z" fill-rule="nonzero"></path><path fill="#3c78d8" d="m641.6512 408.0084l38.37793 -76.75589l100.44098 0l38.37793 76.75589l-38.37793 76.75586l-100.44098 0z" fill-rule="nonzero"></path><path stroke="#ffffff" stroke-width="4.0" stroke-linejoin="round" stroke-linecap="butt" d="m641.6512 408.0084l38.37793 -76.75589l100.44098 0l38.37793 76.75589l-38.37793 76.75586l-100.44098 0z" fill-rule="nonzero"></path><path fill="#ffffff" d="m693.70233 403.92838l-1.0 -2.75l-4.65625 0l-0.9375 2.75l-2.6875 0l5.421875 -13.78125l1.046875 0l5.46875 13.78125l-2.65625 0zm-3.328125 -9.625l-1.640625 5.015625l3.265625 0l-1.625 -5.015625zm9.205627 9.375l0 4.140625l-2.328125 0l0 -13.828125l2.328125 0l0 0.671875q0.875 -0.859375 2.140625 -0.859375q4.75 0 4.75 5.234375q0 2.4375 -1.3125 3.765625q-1.3125 1.3125 -3.59375 1.3125q-1.09375 0 -1.984375 -0.4375zm0 -7.25l0 5.21875q0.625 0.515625 1.46875 0.515625q1.609375 0 2.3125 -0.765625q0.703125 -0.765625 0.703125 -2.421875q0 -1.765625 -0.703125 -2.484375q-0.703125 -0.71875 -2.296875 -0.71875q-0.84375 0 -1.484375 0.65625zm10.867615 7.25l0 4.140625l-2.328125 0l0 -13.828125l2.328125 0l0 0.671875q0.875 -0.859375 2.140625 -0.859375q4.75 0 4.75 5.234375q0 2.4375 -1.3125 3.765625q-1.3125 1.3125 -3.59375 1.3125q-1.09375 0 -1.984375 -0.4375zm0 -7.25l0 5.21875q0.625 0.515625 1.46875 0.515625q1.609375 0 2.3125 -0.765625q0.703125 -0.765625 0.703125 -2.421875q0 -1.765625 -0.703125 -2.484375q-0.703125 -0.71875 -2.296875 -0.71875q-0.84375 0 -1.484375 0.65625zm14.535095 7.5l0 -13.59375l2.40625 0l0 13.59375l-2.40625 0zm11.395508 0l0 -5.75q0 -1.265625 -0.484375 -1.84375q-0.484375 -0.59375 -1.59375 -0.59375q-0.5 0 -1.09375 0.296875q-0.578125 0.28125 -0.890625 0.703125l0 7.1875l-2.328125 0l0 -9.9375l1.671875 0l0.421875 0.921875q0.953125 -1.109375 2.796875 -1.109375q1.765625 0 2.796875 1.0625q1.03125 1.0625 1.03125 2.96875l0 6.09375l-2.328125 0zm4.0133667 -0.640625l0.828125 -1.84375q1.03125 0.828125 2.34375 0.828125q1.359375 0 1.359375 -0.96875q0 -0.5625 -0.421875 -0.921875q-0.40625 -0.375 -1.578125 -0.859375q-2.5625 -1.0625 -2.5625 -2.984375q0 -1.296875 0.96875 -2.015625q0.984375 -0.71875 2.515625 -0.71875q1.5625 0 2.921875 0.703125l-0.671875 1.796875q-0.765625 -0.65625 -2.109375 -0.65625q-1.21875 0 -1.21875 0.96875q0 0.375 0.390625 0.6875q0.40625 0.3125 1.703125 0.828125q1.3125 0.515625 1.890625 1.25q0.578125 0.71875 0.578125 1.765625q0 1.375 -1.03125 2.171875q-1.015625 0.796875 -2.78125 0.796875q-0.984375 0 -1.59375 -0.171875q-0.59375 -0.15625 -1.53125 -0.65625zm9.003357 -7.4375l-1.15625 0l0 -1.859375l1.15625 0l0 -2.015625l2.3125 -0.859375l0 2.875l2.734375 0l0 1.859375l-2.734375 0l0 4.359375q0 1.0625 0.328125 1.515625q0.34375 0.4375 1.171875 0.4375q0.84375 0 1.5625 -0.46875l0 2.140625q-0.8125 0.28125 -2.296875 0.28125q-1.484375 0 -2.28125 -0.84375q-0.796875 -0.84375 -0.796875 -2.390625l0 -5.03125zm12.568787 7.078125q-0.3125 0.53125 -1.09375 0.859375q-0.78125 0.328125 -1.640625 0.328125q-1.609375 0 -2.53125 -0.796875q-0.90625 -0.8125 -0.90625 -2.28125q0 -1.734375 1.28125 -2.703125q1.296875 -0.96875 3.6875 -0.96875q0.40625 0 0.96875 0.140625q0 -1.765625 -2.21875 -1.765625q-1.3125 0 -2.1875 0.4375l-0.5 -1.796875q1.1875 -0.578125 2.84375 -0.578125q2.265625 0 3.328125 1.046875q1.0625 1.03125 1.0625 3.90625l0 2.125q0 1.984375 0.796875 2.5q-0.296875 0.5 -0.65625 0.609375q-0.34375 0.125 -0.796875 0.125q-0.5 0 -0.90625 -0.375q-0.390625 -0.375 -0.53125 -0.8125zm-0.21875 -3.671875q-0.59375 -0.125 -0.890625 -0.125q-2.75 0 -2.75 1.796875q0 1.34375 1.546875 1.34375q2.09375 0 2.09375 -2.09375l0 -0.921875zm5.0322266 -8.96875l2.3125 -0.546875l0 11.15625q0 1.84375 1.09375 2.203125q-0.53125 1.015625 -1.828125 1.015625q-1.578125 0 -1.578125 -2.1875l0 -11.640625zm5.502136 0l2.3125 -0.546875l0 11.15625q0 1.84375 1.09375 2.203125q-0.53125 1.015625 -1.828125 1.015625q-1.578125 0 -1.578125 -2.1875l0 -11.640625z" fill-rule="nonzero"></path><path fill="#ffffff" d="m704.9153 425.92838l-4.15625 0l0 -13.578125q2.75 -0.140625 3.84375 -0.140625q2.125 0 3.3125 0.90625q1.1875 0.90625 1.1875 2.59375q0 1.609375 -1.703125 2.546875q2.53125 0.875 2.53125 3.640625q0 1.84375 -1.40625 2.9375q-1.390625 1.09375 -3.609375 1.09375zm-1.75 -11.65625l0 3.265625q0.5625 0.03125 1.171875 0.03125q2.359375 0 2.359375 -1.765625q0 -1.578125 -2.140625 -1.578125q-0.5625 0 -1.390625 0.046875zm0 5.140625l0 4.5q0.734375 0.0625 1.1875 0.0625q1.625 0 2.34375 -0.546875q0.734375 -0.546875 0.734375 -1.828125q0 -1.15625 -0.6875 -1.6875q-0.671875 -0.53125 -2.359375 -0.53125q-0.34375 0 -1.21875 0.03125zm14.088867 5.515625q-0.3125 0.53125 -1.09375 0.859375q-0.78125 0.328125 -1.640625 0.328125q-1.609375 0 -2.53125 -0.796875q-0.90625 -0.8125 -0.90625 -2.28125q0 -1.734375 1.28125 -2.703125q1.296875 -0.96875 3.6875 -0.96875q0.40625 0 0.96875 0.140625q0 -1.765625 -2.21875 -1.765625q-1.3125 0 -2.1875 0.4375l-0.5 -1.796875q1.1875 -0.578125 2.84375 -0.578125q2.265625 0 3.328125 1.046875q1.0625 1.03125 1.0625 3.90625l0 2.125q0 1.984375 0.796875 2.5q-0.296875 0.5 -0.65625 0.609375q-0.34375 0.125 -0.796875 0.125q-0.5 0 -0.90625 -0.375q-0.390625 -0.375 -0.53125 -0.8125zm-0.21875 -3.671875q-0.59375 -0.125 -0.890625 -0.125q-2.75 0 -2.75 1.796875q0 1.34375 1.546875 1.34375q2.09375 0 2.09375 -2.09375l0 -0.921875zm11.016602 4.671875l0 -5.75q0 -1.265625 -0.484375 -1.84375q-0.484375 -0.59375 -1.59375 -0.59375q-0.5 0 -1.09375 0.296875q-0.578125 0.28125 -0.890625 0.703125l0 7.1875l-2.328125 0l0 -9.9375l1.671875 0l0.421875 0.921875q0.953125 -1.109375 2.796875 -1.109375q1.765625 0 2.796875 1.0625q1.03125 1.0625 1.03125 2.96875l0 6.09375l-2.328125 0zm11.013367 0l0 -5.75q0 -1.265625 -0.484375 -1.84375q-0.484375 -0.59375 -1.59375 -0.59375q-0.5 0 -1.09375 0.296875q-0.578125 0.28125 -0.890625 0.703125l0 7.1875l-2.328125 0l0 -9.9375l1.671875 0l0.421875 0.921875q0.953125 -1.109375 2.796875 -1.109375q1.765625 0 2.796875 1.0625q1.03125 1.0625 1.03125 2.96875l0 6.09375l-2.328125 0zm13.497742 -4.265625l-7.09375 0q0.0625 1.1875 0.8125 1.859375q0.75 0.65625 2.015625 0.65625q1.59375 0 2.421875 -0.828125l0.890625 1.765625q-1.21875 1.0 -3.65625 1.0q-2.265625 0 -3.59375 -1.328125q-1.3125 -1.34375 -1.3125 -3.71875q0 -2.34375 1.4375 -3.796875q1.453125 -1.46875 3.484375 -1.46875q2.171875 0 3.46875 1.296875q1.3125 1.28125 1.3125 3.28125q0 0.421875 -0.1875 1.28125zm-7.015625 -1.734375l4.875 0q-0.234375 -2.1875 -2.40625 -2.1875q-1.984375 0 -2.46875 2.1875zm14.612488 -1.78125q-0.625 -0.40625 -1.375 -0.40625q-0.796875 0 -1.421875 0.734375q-0.625 0.734375 -0.625 1.796875l0 5.65625l-2.328125 0l0 -9.9375l2.328125 0l0 0.90625q0.96875 -1.09375 2.578125 -1.09375q1.1875 0 1.828125 0.359375l-0.984375 1.984375z" fill-rule="nonzero"></path><path fill="#3c78d8" d="m641.6512 216.04318l38.37793 -76.755875l100.44098 0l38.37793 76.755875l-38.37793 76.75586l-100.44098 0z" fill-rule="nonzero"></path><path stroke="#ffffff" stroke-width="4.0" stroke-linejoin="round" stroke-linecap="butt" d="m641.6512 216.04318l38.37793 -76.755875l100.44098 0l38.37793 76.755875l-38.37793 76.75586l-100.44098 0z" fill-rule="nonzero"></path><path fill="#ffffff" d="m685.01105 211.96318l-4.15625 0l0 -13.578125q2.75 -0.140625 3.84375 -0.140625q2.125 0 3.3125 0.90625q1.1875 0.90625 1.1875 2.59375q0 1.609375 -1.703125 2.546875q2.53125 0.875 2.53125 3.640625q0 1.84375 -1.40625 2.9375q-1.390625 1.09375 -3.609375 1.09375zm-1.75 -11.65625l0 3.265625q0.5625 0.03125 1.171875 0.03125q2.359375 0 2.359375 -1.765625q0 -1.578125 -2.140625 -1.578125q-0.5625 0 -1.390625 0.046875zm0 5.140625l0 4.5q0.734375 0.0625 1.1875 0.0625q1.625 0 2.34375 -0.546875q0.734375 -0.546875 0.734375 -1.828125q0 -1.15625 -0.6875 -1.6875q-0.671875 -0.53125 -2.359375 -0.53125q-0.34375 0 -1.21875 0.03125zm14.088867 5.515625q-0.3125 0.53125 -1.09375 0.859375q-0.78125 0.328125 -1.640625 0.328125q-1.609375 0 -2.53125 -0.796875q-0.90625 -0.8125 -0.90625 -2.28125q0 -1.734375 1.28125 -2.703125q1.296875 -0.96875 3.6875 -0.96875q0.40625 0 0.96875 0.140625q0 -1.765625 -2.21875 -1.765625q-1.3125 0 -2.1875 0.4375l-0.5 -1.796875q1.1875 -0.578125 2.84375 -0.578125q2.265625 0 3.328125 1.046875q1.0625 1.03125 1.0625 3.90625l0 2.125q0 1.984375 0.796875 2.5q-0.296875 0.5 -0.65625 0.609375q-0.34375 0.125 -0.796875 0.125q-0.5 0 -0.90625 -0.375q-0.390625 -0.375 -0.53125 -0.8125zm-0.21875 -3.671875q-0.59375 -0.125 -0.890625 -0.125q-2.75 0 -2.75 1.796875q0 1.34375 1.546875 1.34375q2.09375 0 2.09375 -2.09375l0 -0.921875zm12.422791 -4.46875l-1.0 1.734375q-0.8125 -0.78125 -2.1875 -0.78125q-1.3125 0 -2.078125 0.890625q-0.765625 0.875 -0.765625 2.421875q0 3.125 2.984375 3.125q1.28125 0 2.265625 -0.859375l0.859375 1.828125q-1.015625 0.625 -1.78125 0.796875q-0.75 0.171875 -1.78125 0.171875q-2.296875 0 -3.625 -1.34375q-1.328125 -1.34375 -1.328125 -3.71875q0 -2.359375 1.453125 -3.796875q1.453125 -1.453125 3.96875 -1.453125q1.734375 0 3.015625 0.984375zm8.109253 9.140625l-2.921875 -4.5l-1.109375 1.171875l0 3.328125l-2.328125 0l0 -13.640625l2.328125 -0.546875l0 8.0625l3.3125 -3.8125l2.78125 0l-3.359375 3.765625l4.046875 6.171875l-2.75 0zm3.1271362 2.546875l1.453125 -1.796875q1.21875 1.109375 2.71875 1.109375q1.0 0 1.640625 -0.296875q0.65625 -0.296875 0.65625 -0.8125q0 -0.890625 -1.4375 -0.890625q-0.390625 0 -1.15625 0.09375q-0.765625 0.09375 -1.15625 0.09375q-2.40625 0 -2.40625 -1.71875q0 -0.484375 0.40625 -0.953125q0.40625 -0.484375 0.921875 -0.703125q-1.6875 -1.109375 -1.6875 -3.125q0 -1.59375 1.15625 -2.640625q1.171875 -1.046875 2.890625 -1.046875q1.328125 0 2.234375 0.5l0.90625 -1.0625l1.609375 1.46875l-1.109375 0.796875q0.578125 0.875 0.578125 2.0625q0 1.703125 -1.046875 2.71875q-1.03125 1.015625 -2.609375 1.015625q-0.25 0 -0.65625 -0.046875l-0.390625 -0.0625q-0.0625 0 -0.5 0.203125q-0.421875 0.203125 -0.421875 0.40625q0 0.375 0.640625 0.375q0.28125 0 0.953125 -0.140625q0.6875 -0.140625 1.171875 -0.140625q3.390625 0 3.390625 2.71875q0 1.515625 -1.359375 2.359375q-1.359375 0.859375 -3.265625 0.859375q-2.28125 0 -4.125 -1.34375zm2.3125 -9.0q0 0.890625 0.484375 1.421875q0.484375 0.53125 1.3125 0.53125q0.828125 0 1.265625 -0.515625q0.453125 -0.515625 0.453125 -1.4375q0 -0.75 -0.484375 -1.265625q-0.46875 -0.515625 -1.234375 -0.515625q-0.796875 0 -1.296875 0.5q-0.5 0.5 -0.5 1.28125zm13.536438 -1.328125q-0.625 -0.40625 -1.375 -0.40625q-0.796875 0 -1.421875 0.734375q-0.625 0.734375 -0.625 1.796875l0 5.65625l-2.328125 0l0 -9.9375l2.328125 0l0 0.90625q0.96875 -1.09375 2.578125 -1.09375q1.1875 0 1.828125 0.359375l-0.984375 1.984375zm1.5802002 2.796875q0 -2.28125 1.3125 -3.703125q1.3125 -1.4375 3.453125 -1.4375q2.265625 0 3.515625 1.375q1.265625 1.375 1.265625 3.765625q0 2.375 -1.28125 3.78125q-1.28125 1.390625 -3.5 1.390625q-2.25 0 -3.515625 -1.40625q-1.25 -1.421875 -1.25 -3.765625zm2.40625 0q0 3.28125 2.359375 3.28125q1.09375 0 1.71875 -0.859375q0.640625 -0.859375 0.640625 -2.421875q0 -3.25 -2.359375 -3.25q-1.078125 0 -1.71875 0.859375q-0.640625 0.859375 -0.640625 2.390625zm15.198486 5.0l0 -0.84375q-0.5 0.421875 -1.359375 0.71875q-0.859375 0.296875 -1.578125 0.296875q-3.46875 0 -3.46875 -3.671875l0 -6.453125l2.328125 0l0 6.265625q0 1.921875 1.703125 1.921875q0.796875 0 1.46875 -0.40625q0.6875 -0.40625 0.90625 -0.953125l0 -6.828125l2.3125 0l0 9.953125l-2.3125 0zm11.006897 -0.015625l0 -5.75q0 -1.265625 -0.484375 -1.84375q-0.484375 -0.59375 -1.59375 -0.59375q-0.5 0 -1.09375 0.296875q-0.578125 0.28125 -0.890625 0.703125l0 7.1875l-2.328125 0l0 -9.9375l1.671875 0l0.421875 0.921875q0.953125 -1.109375 2.796875 -1.109375q1.765625 0 2.796875 1.0625q1.03125 1.0625 1.03125 2.96875l0 6.09375l-2.328125 0zm11.013367 0l0 -0.609375q-0.28125 0.328125 -0.96875 0.5625q-0.6875 0.234375 -1.421875 0.234375q-2.078125 0 -3.28125 -1.3125q-1.1875 -1.328125 -1.1875 -3.6875q0 -2.34375 1.375 -3.828125q1.375 -1.484375 3.421875 -1.484375q1.140625 0 2.0625 0.46875l0 -3.984375l2.328125 -0.546875l0 14.1875l-2.328125 0zm0 -7.5625q-0.734375 -0.59375 -1.546875 -0.59375q-1.390625 0 -2.140625 0.859375q-0.75 0.84375 -0.75 2.421875q0 3.109375 2.984375 3.109375q0.328125 0 0.8125 -0.203125q0.5 -0.203125 0.640625 -0.40625l0 -5.1875z" fill-rule="nonzero"></path><path fill="#ffffff" d="m710.9724 233.21318l0.890625 -2.15625q1.421875 1.0 2.796875 1.0q2.125 0 2.125 -1.484375q0 -0.703125 -0.5 -1.328125q-0.5 -0.640625 -2.0625 -1.421875q-1.5625 -0.78125 -2.109375 -1.28125q-0.53125 -0.515625 -0.828125 -1.203125q-0.296875 -0.703125 -0.296875 -1.546875q0 -1.578125 1.15625 -2.609375q1.15625 -1.046875 2.96875 -1.046875q2.359375 0 3.453125 0.890625l-0.734375 2.078125q-1.265625 -0.90625 -2.671875 -0.90625q-0.84375 0 -1.296875 0.4375q-0.453125 0.4375 -0.453125 1.140625q0 1.171875 2.578125 2.4375q1.375 0.65625 1.96875 1.21875q0.609375 0.5625 0.921875 1.3125q0.3125 0.75 0.3125 1.671875q0 1.640625 -1.3125 2.71875q-1.296875 1.0625 -3.484375 1.0625q-1.90625 0 -3.421875 -0.984375zm14.443848 2.34375q-0.375 1.0 -1.59375 1.640625q-1.21875 0.65625 -2.84375 0.65625l0 -2.046875q2.671875 0 2.671875 -1.34375q0 -0.890625 -0.734375 -2.734375l-3.109375 -7.703125l2.40625 0l2.703125 6.859375l2.4375 -6.859375l2.40625 0l-4.34375 11.53125zm11.941101 -1.59375l0 -5.75q0 -1.265625 -0.484375 -1.84375q-0.484375 -0.59375 -1.59375 -0.59375q-0.5 0 -1.09375 0.296875q-0.578125 0.28125 -0.890625 0.703125l0 7.1875l-2.328125 0l0 -9.9375l1.671875 0l0.421875 0.921875q0.953125 -1.109375 2.796875 -1.109375q1.765625 0 2.796875 1.0625q1.03125 1.0625 1.03125 2.96875l0 6.09375l-2.328125 0zm12.419617 -9.140625l-1.0 1.734375q-0.8125 -0.78125 -2.1875 -0.78125q-1.3125 0 -2.078125 0.890625q-0.765625 0.875 -0.765625 2.421875q0 3.125 2.984375 3.125q1.28125 0 2.265625 -0.859375l0.859375 1.828125q-1.015625 0.625 -1.78125 0.796875q-0.75 0.171875 -1.78125 0.171875q-2.296875 0 -3.625 -1.34375q-1.328125 -1.34375 -1.328125 -3.71875q0 -2.359375 1.453125 -3.796875q1.453125 -1.453125 3.96875 -1.453125q1.734375 0 3.015625 0.984375z" fill-rule="nonzero"></path><path fill="#3c78d8" d="m814.74677 506.7954l38.37793 -76.75586l100.44098 0l38.37793 76.75586l-38.37793 76.75586l-100.44098 0z" fill-rule="nonzero"></path><path stroke="#ffffff" stroke-width="4.0" stroke-linejoin="round" stroke-linecap="butt" d="m814.74677 506.7954l38.37793 -76.75586l100.44098 0l38.37793 76.75586l-38.37793 76.75586l-100.44098 0z" fill-rule="nonzero"></path><path fill="#ffffff" d="m878.9214 515.3354l0 -7.7343445l-6.828125 0l0 7.7343445l-3.046875 0l0 -17.171844l3.046875 0l0 6.734375l6.828125 0l0 -6.734375l3.015625 0l0 17.171844l-3.015625 0zm13.515625 -14.4687195l0 14.4687195l-3.046875 0l0 -14.4687195l-5.46875 0l0 -2.703125l14.21875 0l0 2.703125l-5.703125 0zm14.683533 0l0 14.4687195l-3.046814 0l0 -14.4687195l-5.46875 0l0 -2.703125l14.218689 0l0 2.703125l-5.703125 0zm10.746094 8.15625l0 6.3124695l-3.046875 0l0 -17.15622q3.046875 -0.125 3.5625 -0.125q4.0625 0 5.9375 1.25q1.890625 1.234375 1.890625 3.890625q0 5.90625 -6.96875 5.90625q-0.515625 0 -1.375 -0.078125zm0 -8.203125l0 5.484375q0.765625 0.09375 1.21875 0.09375q2.078125 0 3.03125 -0.703125q0.96875 -0.703125 0.96875 -2.265625q0 -2.671875 -4.296875 -2.671875q-0.484375 0 -0.921875 0.0625zm10.2109375 13.5624695l1.125 -2.7343445q1.8125 1.2655945 3.546875 1.2655945q2.6875 0 2.6875 -1.8749695q0 -0.875 -0.640625 -1.671875q-0.625 -0.796875 -2.609375 -1.78125q-1.96875 -1.0 -2.65625 -1.625q-0.671875 -0.640625 -1.046875 -1.515625q-0.375 -0.890625 -0.375 -1.953125q0 -2.0 1.453125 -3.3125q1.46875 -1.3125 3.75 -1.3125q2.984375 0 4.375 1.125l-0.921875 2.625q-1.609375 -1.15625 -3.390625 -1.15625q-1.046875 0 -1.640625 0.5625q-0.578125 0.546875 -0.578125 1.4375q0 1.484375 3.28125 3.078125q1.71875 0.84375 2.46875 1.5625q0.765625 0.703125 1.15625 1.640625q0.40625 0.9375 0.40625 2.109375q0 2.0780945 -1.640625 3.4374695q-1.640625 1.34375 -4.40625 1.34375q-2.40625 0 -4.34375 -1.25z" fill-rule="nonzero"></path><path fill="#3c78d8" d="m814.74677 312.18442l38.37793 -76.755875l100.44098 0l38.37793 76.755875l-38.37793 76.75586l-100.44098 0z" fill-rule="nonzero"></path><path stroke="#ffffff" stroke-width="4.0" stroke-linejoin="round" stroke-linecap="butt" d="m814.74677 312.18442l38.37793 -76.755875l100.44098 0l38.37793 76.755875l-38.37793 76.75586l-100.44098 0z" fill-rule="nonzero"></path><path fill="#ffffff" d="m893.5464 306.2244l-1.25 -3.484375l-5.890625 0l-1.1875 3.484375l-3.390625 0l6.84375 -17.40625l1.328125 0l6.90625 17.40625l-3.359375 0zm-4.203125 -12.15625l-2.0625 6.34375l4.125 0l-2.0625 -6.34375zm11.902344 11.84375l0 5.234375l-2.9375 0l0 -17.46875l2.9375 0l0 0.84375q1.09375 -1.078125 2.703125 -1.078125q5.999939 0 5.999939 6.609375q0 3.078125 -1.65625 4.75q-1.65625 1.65625 -4.531189 1.65625q-1.375 0 -2.515625 -0.546875zm0 -9.171875l0 6.59375q0.796875 0.65625 1.859375 0.65625q2.03125 0 2.90625 -0.96875q0.89056396 -0.96875 0.89056396 -3.0625q0 -2.21875 -0.87493896 -3.125q-0.875 -0.90625 -2.90625 -0.90625q-1.0625 0 -1.875 0.8125zm13.980408 9.171875l0 5.234375l-2.9375 0l0 -17.46875l2.9375 0l0 0.84375q1.09375 -1.078125 2.703125 -1.078125q6.0 0 6.0 6.609375q0 3.078125 -1.65625 4.75q-1.65625 1.65625 -4.53125 1.65625q-1.375 0 -2.515625 -0.546875zm0 -9.171875l0 6.59375q0.796875 0.65625 1.859375 0.65625q2.03125 0 2.90625 -0.96875q0.890625 -0.96875 0.890625 -3.0625q0 -2.21875 -0.875 -3.125q-0.875 -0.90625 -2.90625 -0.90625q-1.0625 0 -1.875 0.8125z" fill-rule="nonzero"></path><path fill="#ffffff" d="m877.06006 334.27127l1.125 -2.734375q1.8125 1.265625 3.546875 1.265625q2.6875 0 2.6875 -1.875q0 -0.875 -0.640625 -1.671875q-0.625 -0.796875 -2.609375 -1.78125q-1.96875 -1.0 -2.65625 -1.625q-0.671875 -0.640625 -1.046875 -1.515625q-0.375 -0.890625 -0.375 -1.953125q0 -2.0 1.453125 -3.3125q1.46875 -1.3125 3.75 -1.3125q2.984375 0 4.375 1.125l-0.921875 2.625q-1.609375 -1.15625 -3.390625 -1.15625q-1.046875 0 -1.640625 0.5625q-0.578125 0.546875 -0.578125 1.4375q0 1.484375 3.28125 3.078125q1.71875 0.84375 2.46875 1.5625q0.765625 0.703125 1.15625 1.640625q0.40625 0.9375 0.40625 2.109375q0 2.078125 -1.640625 3.4375q-1.640625 1.34375 -4.40625 1.34375q-2.40625 0 -4.34375 -1.25zm21.035156 0.953125l0 -7.734375q0 -1.15625 -0.734375 -1.859375q-0.71875 -0.703125 -1.890625 -0.703125q-0.71875 0 -1.46875 0.390625q-0.734375 0.390625 -1.046875 0.890625l0 9.015625l-2.984375 0l0 -17.234375l2.984375 -0.703125l0 6.1875q1.140625 -1.03125 3.125 -1.03125q2.359375 0 3.65625 1.3125q1.296875 1.296875 1.296875 3.734375l0 7.734375l-2.9375 0zm17.304626 -5.375l-8.953125 0q0.078125 1.5 1.015625 2.328125q0.953125 0.828125 2.5625 0.828125q2.0 0 3.046875 -1.046875l1.140625 2.25q-1.546875 1.25 -4.625 1.25q-2.859375 0 -4.531189 -1.671875q-1.671875 -1.6875 -1.671875 -4.703125q0 -2.96875 1.828125 -4.796875q1.843689 -1.84375 4.406189 -1.84375q2.734375 0 4.375 1.625q1.65625 1.625 1.65625 4.140625q0 0.546875 -0.25 1.640625zm-8.859375 -2.203125l6.171875 0q-0.3125 -2.765625 -3.046875 -2.765625q-2.515625 0 -3.125 2.765625zm11.964844 -9.65625l2.921875 -0.703125l0 14.109375q0 2.328125 1.390625 2.765625q-0.6875 1.296875 -2.328125 1.296875q-1.984375 0 -1.984375 -2.765625l0 -14.703125zm7.078125 0l2.921875 -0.703125l0 14.109375q0 2.328125 1.390625 2.765625q-0.6875 1.296875 -2.328125 1.296875q-1.984375 0 -1.984375 -2.765625l0 -14.703125z" fill-rule="nonzero"></path><path fill="#a4c2f4" d="m641.65155 599.97363l38.37793 -76.75586l100.44098 0l38.37793 76.75586l-38.37793 76.75592l-100.44098 0z" fill-rule="nonzero"></path><path stroke="#ffffff" stroke-width="4.0" stroke-linejoin="round" stroke-linecap="butt" d="m641.65155 599.97363l38.37793 -76.75586l100.44098 0l38.37793 76.75586l-38.37793 76.75592l-100.44098 0z" fill-rule="nonzero"></path><path fill="#a4c2f4" d="m293.4134 216.04199l38.37796 -76.755875l100.44092 0l38.37796 76.755875l-38.37796 76.75586l-100.44092 0z" fill-rule="nonzero"></path><path stroke="#ffffff" stroke-width="4.0" stroke-linejoin="round" stroke-linecap="butt" d="m293.4134 216.04199l38.37796 -76.755875l100.44092 0l38.37796 76.755875l-38.37796 76.75586l-100.44092 0z" fill-rule="nonzero"></path></g></svg>

