<?xml version="1.0" encoding="UTF-8" standalone="no"?>
<svg width="368px" height="163px" viewBox="0 0 368 163" version="1.1" xmlns="http://www.w3.org/2000/svg" xmlns:xlink="http://www.w3.org/1999/xlink">
    <!-- Generator: Sketch 43.2 (39069) - http://www.bohemiancoding.com/sketch -->
    <title>logo-ionic-framework-thick</title>
    <desc>Created with Sketch.</desc>
    <defs></defs>
    <g id="slices" stroke="none" stroke-width="1" fill="none" fill-rule="evenodd">
        <g id="logo-ionic-framework-thick">
            <g id="logo">
                <rect id="logo-field" opacity="0.773787313" x="0" y="0" width="368" height="163"></rect>
                <g id="logo-ionic-framework-thick" transform="translate(44.000000, 34.000000)" fill="#4B8BF8">
                    <path d="M46.9567139,94.0847592 C22.3294051,94.0934844 1.43648725,74.649745 0.102322946,50.4809065 C-1.31909348,24.7264589 16.811898,3.00147309 42.1118414,0.343456091 C48.8183569,-0.360113314 55.4788669,0.251444759 61.9069688,2.54062323 C65.1249858,3.68679887 66.4512181,5.49688385 65.4969972,7.7701983 C64.3143343,10.5884419 62.1425496,10.4670822 59.6487252,9.68339943 C42.1054958,4.16985836 24.6050992,9.84838527 14.449745,24.8827195 C5.44294618,38.218017 4.78062323,52.4583569 12.6848725,66.4345609 C20.7921813,80.7708782 33.6539377,87.5749575 50.0993768,86.4359207 C75.201813,84.698017 92.0533711,59.9572805 84.9002833,35.8836261 C84.6282153,34.9674788 84.3101416,34.0584703 84.1253258,33.1248725 C83.7049292,30.9998867 84.256204,29.2120113 86.4850992,28.563966 C88.6045326,27.9476487 90.4511048,28.7884419 91.0880453,30.8943909 C92.1572805,34.4384136 93.2725212,38.0403399 93.6881586,41.6946176 C96.8831728,69.7850425 75.1447025,94.0744476 46.9567139,94.0847592 Z M25.8599433,47.1383569 C26.1764306,34.9127479 34.5708782,26.154221 46.9567139,25.9202266 C58.5739377,25.6997167 68.158187,35.3355241 68.2343343,46.8385269 C68.3128612,58.5834561 58.827762,68.2747875 47.1684986,68.3596601 C35.4664023,68.446119 25.9352975,58.953881 25.8599433,47.1383569 Z M77.7535411,7.09518414 C83.0640227,7.16339943 87.2941643,11.4657224 87.1339377,16.6358074 C86.9633994,22.1144476 82.6769405,26.1994334 77.2490652,26.0550708 C72.098017,25.9186402 68.0804533,21.7876487 68.0669688,16.6120113 C68.0526912,11.1309915 72.232068,7.02379603 77.7535411,7.09518414 Z" id="icon-ionic"></path>
                    <path d="M186.010425,31.2624363 C190.745042,27.98017 195.198074,26.0653824 200.451445,26.1970538 C209.424929,26.4223229 215.524646,31.3687252 216.235354,40.3604533 C216.868329,48.3828895 216.643853,56.4806799 216.566119,64.5435694 C216.556601,65.4026062 216.40272,66.5329178 215.415977,66.9287252 C215.100283,67.054051 213.720113,67.0992635 213.509122,67.1064023 C207.03898,67.2991501 207.037394,67.2991501 207.031841,60.7845892 C207.028669,55.4749008 207.095297,50.1628329 207.005666,44.8547309 C206.91762,39.5664589 205.006006,36.3428895 201.594448,35.3593201 C197.388102,34.1473088 191.086119,36.2548442 188.773938,39.8401133 C188.195694,40.7372238 188.029915,42.027762 188.018017,43.1422096 C187.951388,49.5139943 187.99898,55.885779 187.985496,62.2583569 C187.975977,67.0770538 187.945836,67.093711 183.288952,67.1000567 L182.970085,67.1000567 C178.547195,67.0976771 178.373484,66.9549008 178.36,62.3813031 C178.334618,53.0358074 178.352068,43.6911048 178.351275,34.3448159 C178.351275,33.4960907 178.375864,32.6441926 178.341756,31.7970538 C178.261643,29.7878754 177.776997,27.5335977 180.737224,27.1647592 C183.420623,26.8284419 186.035014,26.7745042 186.010425,31.2624363 Z M131.369178,47.0011331 C131.381076,35.4576771 140.313314,26.2335411 151.483173,26.2303683 C162.852125,26.2279887 171.720113,35.4346742 171.682833,47.2041926 C171.647932,58.8301416 162.42221,68.2819263 151.274561,68.1169405 C140.251445,67.9567139 131.356487,58.5184136 131.369178,47.0011331 Z M140.398187,46.9075354 C140.342663,53.6354674 145.442153,59.371898 151.465722,59.3552408 C157.610652,59.3393768 162.683966,53.7933144 162.714108,47.0566572 C162.742663,40.5500283 157.698697,35.0888385 151.610878,35.0364873 C145.481813,34.984136 140.452918,40.308102 140.398187,46.9075354 Z M242.775864,46.456204 C243.015411,39.3205666 246.385722,33.0756941 253.248499,29.0914448 C259.728159,25.3308782 266.498924,24.8692351 273.232408,28.6972238 C273.965326,29.1128612 274.654618,29.6276487 275.30187,30.1701983 C279.696997,33.8490652 279.647819,34.7065156 275.441473,38.4163173 C273.939943,39.7409632 272.919887,39.7742776 271.388215,38.4615297 C266.888385,34.601813 262.48136,34.0330878 258.313881,36.5284986 C253.817224,39.2206232 251.641473,44.5184136 252.763059,50.0398867 C253.746629,54.8815864 257.585722,58.5596601 262.528952,59.245779 C266.283966,59.7653258 269.517054,58.4303683 271.973598,55.6914448 C274.551501,52.8160907 276.157734,54.9498017 278.070142,56.421983 C280.252238,58.1035694 279.295637,59.6336544 278.063003,61.3057224 C271.331898,70.4330878 255.837507,70.2633428 247.872181,60.9725779 C244.478867,57.0160907 242.846459,52.4274221 242.775864,46.456204 Z M124.56034,47.0749008 C124.56034,52.7058357 124.493711,58.3367705 124.591275,63.966119 C124.632521,66.3306516 123.665609,67.1048159 121.371671,67.1341643 C114.979263,67.2150708 114.979263,67.2888385 114.976884,60.9987535 C114.973711,51.2249292 114.972125,41.4511048 114.970538,31.6780737 C114.970538,27.3392635 115.190255,27.1124079 119.374391,27.1013031 C124.558754,27.0886119 124.569858,27.0886119 124.580963,31.7764306 C124.594448,36.8767139 124.584136,41.9754108 124.584136,47.0741076 C124.576204,47.0749008 124.567479,47.0749008 124.56034,47.0749008 Z M225.907649,47.1645326 C225.912408,41.6390935 226.006799,36.1096884 225.872748,30.5890085 C225.806912,27.9135411 226.910255,26.8911048 229.46119,27.0656091 C230.518527,27.1377904 231.585382,27.0727479 232.648272,27.0870255 C234.58051,27.1116147 235.503796,27.9730312 235.495071,30.0290085 C235.445099,41.3995467 235.450652,52.7692918 235.494278,64.1390368 C235.503003,66.3369972 234.549575,67.0786402 232.408725,67.1349575 C225.914788,67.3070822 225.913994,67.3721246 225.903683,60.8718414 C225.897337,56.3022096 225.90289,51.7333711 225.907649,47.1645326 Z" id="logo-ionic-wordmark"></path>
                </g>
            </g>
        </g>
    </g>
</svg>